<?xml version="1.0" encoding="UTF-8"?>
<!-- Copyright (c) 2021 kadir ilkimen | MIT License-->
<svg xmlns="http://www.w3.org/2000/svg" width="297mm" height="210mm" version="1.0" style="fill-rule:evenodd; clip-rule:evenodd" viewBox="0 0 29653.85 20967.37" xmlns:xlink="http://www.w3.org/1999/xlink">
 <defs>
  <style type="text/css">
   <![CDATA[
    .str3 {stroke:black;stroke-width:19.97;stroke-miterlimit:22.9256}
    .str1 {stroke:black;stroke-width:19.97;stroke-miterlimit:22.9256}
    .str0 {stroke:black;stroke-width:19.97;stroke-linejoin:bevel;stroke-miterlimit:22.9256}
    .str2 {stroke:black;stroke-width:19.97;stroke-miterlimit:22.9256;stroke-dasharray:39.937848 59.906771}
    .fil0 {fill:none}
    .fil2 {fill:#4D4D4D}
    .fil4 {fill:gray}
    .fil3 {fill:#B3B3B3}
    .fil1 {fill:#E6E6E6}
    .fil5 {fill:black;fill-rule:nonzero}
    .fil6 {fill:black;fill-rule:nonzero}
   ]]>
  </style>
 </defs>
 <g id="_0">
  <polygon class="fil0" points="-0,0 29653.85,0 29653.85,20967.37 -0,20967.37 "/>
  <polygon class="fil1 str0" points="15916.76,10666.37 16022.29,10560.84 16022.29,8211.76 15886.85,8076.33 15718.34,7913.49 15651.84,7767.03 15636.1,7729.03 15636.1,6142.37 15774.58,6142.37 16353.86,6721.64 16601.55,6721.64 16601.55,12050.97 16353.84,12050.97 15774.57,12630.22 15636.1,12630.22 15636.1,11043.57 15651.84,11005.57 15718.34,10859.11 15741.76,10835.7 "/>
  <polygon class="fil2 str0" points="15018.21,7455.7 13975.52,7455.7 13696.22,7735 13724.5,7803.28 14149.3,7803.28 14149.3,8119.81 13654.85,8614.24 12519.75,8614.24 12025.3,8119.81 12025.3,7803.26 12450.1,7803.26 12478.39,7735 12199.09,7455.7 11156.39,7455.7 11156.39,8498.38 11435.67,8777.69 11503.96,8749.4 11503.96,8324.61 11820.48,8324.61 12314.94,8819.06 12314.94,9379.63 13859.66,9379.63 13859.66,8819.06 14354.11,8324.61 14670.65,8324.61 14670.65,8749.42 14738.9,8777.69 15018.21,8498.38 "/>
  <polygon class="fil2 str0" points="12519.73,10158.97 13654.85,10158.97 14149.3,10653.41 14149.3,10969.95 13724.5,10969.95 13696.22,11038.22 13975.52,11317.52 15018.21,11317.52 15018.21,10274.82 14738.9,9995.53 14670.65,10023.8 14670.65,10448.6 14354.09,10448.6 13859.66,9954.18 13859.66,9428.7 12314.94,9428.7 12314.94,9954.18 11820.48,10448.6 11503.96,10448.6 11503.96,10023.8 11435.67,9995.53 11156.39,10274.82 11156.39,11317.52 12199.09,11317.52 12478.37,11038.22 12450.1,10969.95 12025.3,10969.95 12025.3,10653.41 "/>
  <polygon class="fil3 str0" points="14091.37,9733.86 14052.75,9695.24 13936.9,9695.24 13877.97,9754.17 13877.97,9918.82 14370.08,10410.93 14632.01,10410.93 14632.01,10055.04 14554.79,9965.88 14129.99,9965.88 14091.37,9921.29 "/>
  <polygon class="fil3 str0" points="14091.37,8851.93 14091.37,9038.73 14052.75,9077.35 13936.9,9077.35 13877.99,9018.44 13877.99,8856.26 14370.08,8364.15 14632.01,8364.16 14632.01,8718.18 14554.79,8807.33 14129.99,8807.33 "/>
  <polygon class="fil3 str0" points="15597.49,9386.31 15597.49,9096.67 15500.94,9000.13 15404.39,9000.13 15211.3,9096.65 14844.43,9096.65 14786.5,9038.73 14786.5,8845.95 15018.21,8613.93 15269.23,8613.93 15462.32,8420.86 15906.43,8420.86 15945.05,8459.48 15945.05,9386.31 15945.05,10313.15 15906.43,10351.75 15462.32,10351.77 15269.23,10158.68 15018.21,10158.66 14786.5,9926.66 14786.5,9733.88 14844.43,9675.95 15211.3,9675.93 15404.38,9772.47 15500.94,9772.49 15597.49,9675.95 "/>
  <polygon class="fil4 str0" points="15249.92,10197.3 15443.01,10390.39 15945.05,10390.39 15983.67,10429.01 15983.67,10544.86 15597.49,10931.04 15597.49,12668.86 15790.58,12668.86 16369.84,12089.59 16562.93,12089.59 16562.93,13634.31 16176.76,14020.5 15211.3,14020.5 15018.21,13827.4 15018.21,10293.84 15114.76,10197.3 "/>
  <polygon class="fil4 str0" points="15018.21,4945.2 15211.3,4752.13 16176.76,4752.13 16562.93,5138.31 16562.93,6683.04 16369.84,6683.04 15790.58,6103.77 15597.49,6103.77 15597.49,7841.59 15983.67,8227.77 15983.67,8343.63 15945.05,8382.23 15443.01,8382.23 15249.92,8575.31 15114.76,8575.31 15018.21,8478.77 "/>
  <polygon class="fil4 str0" points="11484.65,9637.62 11484.65,9135.58 11446.03,9096.96 11156.39,9096.96 11156.39,8845.95 11735.67,8845.95 11735.67,9096.96 15500.94,9096.98 15597.49,9193.53 15597.49,9579.71 15500.94,9676.26 11735.67,9676.24 11735.67,9927.26 11156.39,9927.26 11156.39,9676.24 11446.03,9676.24 "/>
  <polygon class="fil4 str1" points="14149.3,9095.49 14516.17,9096.85 14554.79,9058.37 14554.79,8869.9 14516.17,8831.14 14149.3,8829.77 14110.68,8868.25 14110.68,9056.73 "/>
  <polygon class="fil4 str1" points="14149.3,9940.95 14516.17,9942.32 14554.79,9903.84 14554.79,9715.36 14516.17,9676.61 14149.3,9675.23 14110.68,9713.72 14110.68,9902.2 "/>
  <line class="fil0 str2" x1="12314.94" y1="8903.87" x2="13859.66" y2= "8903.87" />
  <line class="fil0 str2" x1="12314.94" y1="9869.33" x2="13859.66" y2= "9869.33" />
  <path class="fil5" d="M6151.67 7647.38l-319.81 0 0 -47.57 128.17 -128.75c38.94,-39.51 64.71,-67.66 77.2,-84.58 12.38,-16.8 21.69,-33.26 27.93,-49.15 6.13,-16.02 9.32,-33.16 9.32,-51.66 0,-25.88 -7.95,-46.44 -23.61,-61.64 -15.79,-15.22 -37.69,-22.82 -65.63,-22.82 -20.21,0 -39.28,3.29 -57.33,9.99 -18.16,6.58 -38.26,18.73 -60.4,36.21l-29.29 -37.58c44.73,-37.12 93.55,-55.62 146.34,-55.62 45.76,0 81.51,11.69 107.51,35.08 26,23.39 38.94,54.83 38.94,94.34 0,30.77 -8.63,61.31 -26,91.51 -17.25,30.08 -49.61,68.23 -97.18,114.32l-106.49 104.23 0 2.61 250.34 0 0 51.09zm392.13 -243.75c0,84.13 -13.28,146.91 -39.73,188.35 -26.57,41.44 -67.1,62.21 -121.59,62.21 -52.46,0 -92.19,-21.23 -119.55,-63.69 -27.25,-42.45 -40.87,-104.79 -40.87,-186.87 0,-84.69 13.17,-147.47 39.62,-188.58 26.34,-40.98 66.65,-61.52 120.8,-61.52 52.79,0 92.87,21.46 120.22,64.25 27.36,42.8 41.1,104.8 41.1,185.85zm-265.89 -0.11c0,70.73 8.29,122.27 24.98,154.63 16.68,32.24 43.14,48.36 79.59,48.36 36.78,0 63.46,-16.35 80.04,-49.05 16.46,-32.81 24.75,-84.01 24.75,-153.94 0,-69.82 -8.29,-121.02 -24.75,-153.61 -16.57,-32.47 -43.25,-48.7 -80.04,-48.7 -36.44,0 -62.9,16.02 -79.59,48.14 -16.69,32.02 -24.98,83.45 -24.98,154.18zm446.07 57.33l-126.7 -177.9 62.89 0 96.05 139.64 95.82 -139.64 62.21 0 -126.7 177.9 133.4 186.53 -62.55 0 -102.07 -147.59 -103.2 147.59 -62.55 0 133.4 -186.53zm563.67 186.53l-319.81 0 0 -47.57 128.17 -128.75c38.94,-39.51 64.71,-67.66 77.2,-84.58 12.38,-16.8 21.69,-33.26 27.93,-49.15 6.13,-16.02 9.32,-33.16 9.32,-51.66 0,-25.88 -7.95,-46.44 -23.61,-61.64 -15.79,-15.22 -37.69,-22.82 -65.63,-22.82 -20.21,0 -39.28,3.29 -57.33,9.99 -18.16,6.58 -38.26,18.73 -60.4,36.21l-29.29 -37.58c44.73,-37.12 93.55,-55.62 146.34,-55.62 45.76,0 81.51,11.69 107.51,35.08 26,23.39 38.94,54.83 38.94,94.34 0,30.77 -8.63,61.31 -26,91.51 -17.25,30.08 -49.61,68.23 -97.18,114.32l-106.49 104.23 0 2.61 250.34 0 0 51.09zm392.13 -243.75c0,84.13 -13.28,146.91 -39.73,188.35 -26.57,41.44 -67.1,62.21 -121.59,62.21 -52.46,0 -92.19,-21.23 -119.55,-63.69 -27.25,-42.45 -40.87,-104.79 -40.87,-186.87 0,-84.69 13.17,-147.47 39.62,-188.58 26.34,-40.98 66.65,-61.52 120.8,-61.52 52.79,0 92.87,21.46 120.22,64.25 27.36,42.8 41.1,104.8 41.1,185.85zm-265.89 -0.11c0,70.73 8.29,122.27 24.98,154.63 16.68,32.24 43.14,48.36 79.59,48.36 36.78,0 63.46,-16.35 80.04,-49.05 16.46,-32.81 24.75,-84.01 24.75,-153.94 0,-69.82 -8.29,-121.02 -24.75,-153.61 -16.57,-32.47 -43.25,-48.7 -80.04,-48.7 -36.44,0 -62.9,16.02 -79.59,48.14 -16.69,32.02 -24.98,83.45 -24.98,154.18zm821.17 -242.5l60.85 0 -175.18 486.36 -55.85 0 -174.27 -486.36 59.83 0 111.72 314.71c12.83,36.09 23.04,71.29 30.65,105.47 7.95,-35.99 18.39,-71.75 31.22,-107.51l111.04 -312.66zm88.89 329.13l0 -50.52 163.49 0 0 50.52 -163.49 0zm485.01 57.9c0,33.94 -12.72,60.17 -37.92,78.56 -25.32,18.39 -60.74,27.59 -106.49,27.59 -48.24,0 -85.94,-7.61 -113.07,-22.93l0 -51.31c17.6,8.86 36.33,15.9 56.42,21 20.1,5.11 39.4,7.61 58.02,7.61 28.84,0 50.97,-4.65 66.53,-13.85 15.56,-9.2 23.27,-23.16 23.27,-42 0,-14.19 -6.13,-26.34 -18.5,-36.44 -12.26,-10.1 -36.22,-22.03 -71.98,-35.76 -33.95,-12.71 -58.02,-23.72 -72.32,-33.15 -14.31,-9.43 -24.98,-20.1 -31.91,-32.13 -7.04,-11.92 -10.44,-26.23 -10.44,-42.91 0,-29.74 12.04,-53.14 36.22,-70.39 24.17,-17.14 57.33,-25.77 99.45,-25.77 39.17,0 77.54,7.95 115.01,23.95l-19.64 44.96c-36.56,-15.1 -69.71,-22.59 -99.35,-22.59 -26.22,0 -45.98,4.08 -59.26,12.26 -13.29,8.29 -19.98,19.53 -19.98,33.95 0,9.76 2.5,18.05 7.49,24.98 4.99,6.81 13.06,13.39 24.18,19.64 11.01,6.13 32.36,15.21 63.8,26.91 43.25,15.78 72.44,31.67 87.64,47.57 15.22,16.01 22.82,36.1 22.82,60.29zm144.97 99.34l-55.17 0 0 -517.69 55.17 0 0 517.69zm431.76 -182.56c0,59.49 -14.99,105.93 -44.84,139.3 -29.97,33.38 -71.3,50.06 -124.09,50.06 -32.59,0 -61.53,-7.61 -86.85,-22.93 -25.2,-15.33 -44.73,-37.35 -58.47,-65.96 -13.85,-28.61 -20.66,-62.1 -20.66,-100.47 0,-59.49 14.87,-105.81 44.62,-138.96 29.62,-33.15 70.95,-49.72 123.63,-49.72 51.09,0 91.51,16.91 121.59,50.86 30.08,33.95 45.07,79.93 45.07,137.83zm-277.69 0c0,46.55 9.31,82.08 27.93,106.49 18.62,24.4 45.98,36.55 82.19,36.55 36.1,0 63.58,-12.15 82.31,-36.44 18.73,-24.29 28.05,-59.83 28.05,-106.6 0,-46.32 -9.32,-81.51 -28.05,-105.59 -18.73,-24.06 -46.44,-36.1 -82.99,-36.1 -36.21,0 -63.46,11.81 -81.85,35.53 -18.39,23.73 -27.59,59.16 -27.59,106.15zm492.26 143.73c9.76,0 19.18,-0.68 28.27,-2.16 9.09,-1.48 16.23,-2.95 21.57,-4.54l0 42.35c-6.01,2.84 -14.76,5.22 -26.45,7.15 -11.58,1.93 -22.14,2.84 -31.45,2.84 -70.5,0 -105.7,-37.12 -105.7,-111.49l0 -216.84 -52.22 0 0 -26.56 52.22 -23.05 23.27 -77.77 31.9 0 0 84.47 105.82 0 0 42.91 -105.82 0 0 214.46c0,22.03 5.22,38.83 15.68,50.64 10.44,11.69 24.74,17.59 42.91,17.59zm-3030.52 966.49l-271 0 0 -486.36 271 0 0 50.41 -214.46 0 0 156.67 201.52 0 0 49.73 -201.52 0 0 179.14 214.46 0 0 50.41zm187.33 -186.53l-126.7 -177.9 62.89 0 96.05 139.64 95.82 -139.64 62.21 0 -126.7 177.9 133.4 186.53 -62.55 0 -102.07 -147.59 -103.2 147.59 -62.55 0 133.4 -186.53zm386.91 147.7c9.76,0 19.18,-0.68 28.27,-2.16 9.09,-1.48 16.23,-2.95 21.57,-4.54l0 42.35c-6.01,2.84 -14.76,5.22 -26.45,7.15 -11.58,1.93 -22.14,2.84 -31.45,2.84 -70.5,0 -105.7,-37.12 -105.7,-111.49l0 -216.84 -52.22 0 0 -26.56 52.22 -23.05 23.27 -77.77 31.9 0 0 84.47 105.82 0 0 42.91 -105.82 0 0 214.46c0,22.03 5.22,38.83 15.68,50.64 10.44,11.69 24.74,17.59 42.91,17.59zm288.93 -332.41c16.12,0 30.65,1.36 43.48,3.97l-7.61 51.43c-15.1,-3.29 -28.39,-5 -39.96,-5 -29.4,0 -54.62,11.92 -75.61,35.88 -20.89,23.95 -31.34,53.81 -31.34,89.46l0 195.5 -55.28 0 0 -364.43 45.64 0 6.24 67.33 2.73 0c13.51,-23.73 29.74,-42 48.82,-54.83 19.07,-12.83 39.96,-19.3 62.89,-19.3zm163.72 6.81l0 236.48c0,29.63 6.7,51.89 20.32,66.53 13.51,14.65 34.74,21.92 63.58,21.92 38.14,0 65.96,-10.44 83.67,-31.22 17.59,-20.89 26.45,-54.94 26.45,-102.18l0 -191.52 55.17 0 0 364.43 -45.52 0 -7.95 -48.7 -3.07 0c-11.24,17.94 -27.03,31.67 -47.12,41.22 -19.98,9.54 -42.91,14.3 -68.68,14.3 -44.39,0 -77.55,-10.55 -99.68,-31.56 -22.03,-21.12 -33.04,-54.83 -33.04,-101.15l0 -238.53 55.86 0zm601.36 265.1c0,33.94 -12.72,60.17 -37.92,78.56 -25.32,18.39 -60.74,27.59 -106.49,27.59 -48.24,0 -85.94,-7.61 -113.07,-22.93l0 -51.31c17.6,8.86 36.33,15.9 56.42,21 20.1,5.11 39.4,7.61 58.02,7.61 28.84,0 50.97,-4.65 66.53,-13.85 15.56,-9.2 23.27,-23.16 23.27,-42 0,-14.19 -6.13,-26.34 -18.5,-36.44 -12.26,-10.1 -36.22,-22.03 -71.98,-35.76 -33.95,-12.71 -58.02,-23.72 -72.32,-33.15 -14.31,-9.43 -24.98,-20.1 -31.91,-32.13 -7.04,-11.92 -10.44,-26.23 -10.44,-42.91 0,-29.74 12.04,-53.14 36.22,-70.39 24.17,-17.14 57.33,-25.77 99.45,-25.77 39.17,0 77.54,7.95 115.01,23.95l-19.64 44.96c-36.56,-15.1 -69.71,-22.59 -99.35,-22.59 -26.22,0 -45.98,4.08 -59.26,12.26 -13.29,8.29 -19.98,19.53 -19.98,33.95 0,9.76 2.5,18.05 7.49,24.98 4.99,6.81 13.06,13.39 24.18,19.64 11.01,6.13 32.36,15.21 63.8,26.91 43.25,15.78 72.44,31.67 87.64,47.57 15.22,16.01 22.82,36.1 22.82,60.29zm144.97 99.34l-55.17 0 0 -364.43 55.17 0 0 364.43zm-59.83 -463.43c0,-12.6 3.07,-21.8 9.31,-27.71 6.25,-5.9 13.97,-8.85 23.27,-8.85 8.86,0 16.58,2.95 22.93,8.97 6.47,6.02 9.65,15.22 9.65,27.59 0,12.49 -3.19,21.8 -9.65,27.82 -6.35,6.13 -14.08,9.2 -22.93,9.2 -9.31,0 -17.02,-3.07 -23.27,-9.2 -6.24,-6.02 -9.31,-15.33 -9.31,-27.82zm491.58 280.87c0,59.49 -14.99,105.93 -44.84,139.3 -29.97,33.38 -71.3,50.06 -124.09,50.06 -32.59,0 -61.53,-7.61 -86.85,-22.93 -25.2,-15.33 -44.73,-37.35 -58.47,-65.96 -13.85,-28.61 -20.66,-62.1 -20.66,-100.47 0,-59.49 14.87,-105.81 44.62,-138.96 29.62,-33.15 70.95,-49.72 123.63,-49.72 51.09,0 91.51,16.91 121.59,50.86 30.08,33.95 45.07,79.93 45.07,137.83zm-277.69 0c0,46.55 9.31,82.08 27.93,106.49 18.62,24.4 45.98,36.55 82.19,36.55 36.1,0 63.58,-12.15 82.31,-36.44 18.73,-24.29 28.05,-59.83 28.05,-106.6 0,-46.32 -9.32,-81.51 -28.05,-105.59 -18.73,-24.06 -46.44,-36.1 -82.99,-36.1 -36.21,0 -63.46,11.81 -81.85,35.53 -18.39,23.73 -27.59,59.16 -27.59,106.15zm624.07 182.56l0 -235.8c0,-29.74 -6.7,-51.88 -20.32,-66.53 -13.51,-14.65 -34.75,-21.92 -63.58,-21.92 -38.14,0 -66.08,10.33 -83.78,30.88 -17.83,20.67 -26.69,54.72 -26.69,102.18l0 191.18 -55.17 0 0 -364.43 44.85 0 8.97 49.73 2.73 0c11.35,-17.94 27.13,-31.91 47.57,-41.78 20.44,-9.87 43.14,-14.76 68.23,-14.76 43.93,0 76.97,10.55 99.12,31.79 22.25,21.12 33.26,55.05 33.26,101.6l0 237.85 -55.17 0z"/>
  <path class="fil5" d="M6612.89 11167.17l-165.07 -431.19 -2.61 0c3.07,34.18 4.65,74.81 4.65,121.82l0 309.37 -52.23 0 0 -486.36 85.15 0 154.06 401.22 2.62 0 155.42 -401.22 84.47 0 0 486.36 -56.54 0 0 -313.34c0,-35.99 1.6,-75.04 4.66,-117.17l-2.62 0 -166.43 430.51 -45.53 0zm667.56 -371.81c0,30.99 -8.63,56.31 -26.12,76.06 -17.36,19.76 -42,32.93 -74.01,39.51l0 2.73c39.05,4.88 68,17.26 86.84,37.24 18.85,19.98 28.28,46.21 28.28,78.56 0,46.44 -16.02,82.08 -48.25,107.06 -32.13,24.97 -77.77,37.46 -137.03,37.46 -25.77,0 -49.27,-1.93 -70.73,-5.79 -21.35,-3.97 -42.23,-10.78 -62.33,-20.55l0 -52.56c21.01,10.32 43.48,18.27 67.33,23.72 23.84,5.45 46.44,8.18 67.77,8.18 84.02,0 126.02,-32.93 126.02,-98.78 0,-59.03 -46.32,-88.55 -139.07,-88.55l-47.92 0 0 -47.68 48.59 0c37.92,0 68,-8.41 90.14,-25.09 22.26,-16.8 33.38,-39.97 33.38,-69.71 0,-23.72 -8.17,-42.34 -24.52,-55.85 -16.34,-13.51 -38.37,-20.33 -66.42,-20.33 -21.23,0 -41.33,2.85 -60.17,8.63 -18.85,5.79 -40.42,16.46 -64.6,31.91l-27.93 -37.24c19.98,-15.67 43.02,-27.93 69.02,-36.89 26.11,-8.98 53.48,-13.4 82.31,-13.4 47.34,0 84.01,10.78 110.24,32.35 26.11,21.69 39.17,51.32 39.17,89.01zm201.18 185.28l-126.7 -177.9 62.89 0 96.05 139.64 95.82 -139.64 62.21 0 -126.7 177.9 133.4 186.53 -62.55 0 -102.07 -147.59 -103.2 147.59 -62.55 0 133.4 -186.53zm563.67 186.53l-319.81 0 0 -47.57 128.17 -128.75c38.94,-39.51 64.71,-67.66 77.2,-84.58 12.38,-16.8 21.69,-33.26 27.93,-49.15 6.13,-16.02 9.32,-33.16 9.32,-51.66 0,-25.88 -7.95,-46.44 -23.61,-61.64 -15.79,-15.22 -37.69,-22.82 -65.63,-22.82 -20.21,0 -39.28,3.29 -57.33,9.99 -18.16,6.58 -38.26,18.73 -60.4,36.21l-29.29 -37.58c44.73,-37.12 93.55,-55.62 146.34,-55.62 45.76,0 81.51,11.69 107.51,35.08 26,23.39 38.94,54.83 38.94,94.34 0,30.77 -8.63,61.31 -26,91.51 -17.25,30.08 -49.61,68.23 -97.18,114.32l-106.49 104.23 0 2.61 250.34 0 0 51.09zm392.13 -243.75c0,84.13 -13.28,146.91 -39.73,188.35 -26.57,41.44 -67.1,62.21 -121.59,62.21 -52.46,0 -92.19,-21.23 -119.55,-63.69 -27.25,-42.45 -40.87,-104.79 -40.87,-186.87 0,-84.69 13.17,-147.47 39.62,-188.58 26.34,-40.98 66.65,-61.52 120.8,-61.52 52.79,0 92.87,21.46 120.22,64.25 27.36,42.8 41.1,104.8 41.1,185.85zm-265.89 -0.11c0,70.73 8.29,122.27 24.98,154.63 16.68,32.24 43.14,48.36 79.59,48.36 36.78,0 63.46,-16.35 80.04,-49.05 16.46,-32.81 24.75,-84.01 24.75,-153.94 0,-69.82 -8.29,-121.02 -24.75,-153.61 -16.57,-32.47 -43.25,-48.7 -80.04,-48.7 -36.44,0 -62.9,16.02 -79.59,48.14 -16.69,32.02 -24.98,83.45 -24.98,154.18zm-2195.26 1042.32c0,42.8 -15.56,76.18 -46.55,100.13 -31.11,23.95 -73.23,35.87 -126.47,35.87 -57.68,0 -102.07,-7.49 -133.06,-22.37l0 -54.61c19.99,8.4 41.67,15.1 65.17,19.98 23.5,4.88 46.78,7.27 69.93,7.27 37.69,0 66.08,-7.15 85.15,-21.46 19.08,-14.2 28.62,-34.06 28.62,-59.61 0,-16.8 -3.4,-30.65 -10.1,-41.33 -6.81,-10.78 -18.17,-20.66 -33.95,-29.85 -15.9,-9.09 -40.08,-19.42 -72.44,-30.88 -45.18,-16.23 -77.54,-35.42 -96.95,-57.56 -19.41,-22.14 -29.17,-51.09 -29.17,-86.84 0,-37.47 14.08,-67.33 42.23,-89.47 28.27,-22.14 65.5,-33.26 111.83,-33.26 48.36,0 92.87,8.86 133.39,26.57l-17.59 49.15c-40.19,-16.91 -79.25,-25.32 -117.17,-25.32 -29.85,0 -53.36,6.48 -70.16,19.3 -16.91,12.95 -25.32,30.77 -25.32,53.71 0,16.91 3.19,30.65 9.32,41.44 6.24,10.78 16.68,20.66 31.45,29.63 14.76,8.97 37.34,18.84 67.77,29.74 50.97,18.16 86.06,37.69 105.24,58.58 19.19,20.78 28.85,47.92 28.85,81.17zm405.64 -53.36c0,59.49 -14.99,105.93 -44.84,139.3 -29.97,33.38 -71.3,50.06 -124.09,50.06 -32.59,0 -61.53,-7.61 -86.85,-22.93 -25.2,-15.33 -44.73,-37.35 -58.47,-65.96 -13.85,-28.61 -20.66,-62.1 -20.66,-100.47 0,-59.49 14.87,-105.81 44.62,-138.96 29.62,-33.15 70.95,-49.72 123.63,-49.72 51.09,0 91.51,16.91 121.59,50.86 30.08,33.95 45.07,79.93 45.07,137.83zm-277.69 0c0,46.55 9.31,82.08 27.93,106.49 18.62,24.4 45.98,36.55 82.19,36.55 36.1,0 63.58,-12.15 82.31,-36.44 18.73,-24.29 28.05,-59.83 28.05,-106.6 0,-46.32 -9.32,-81.51 -28.05,-105.59 -18.73,-24.06 -46.44,-36.1 -82.99,-36.1 -36.21,0 -63.46,11.81 -81.85,35.53 -18.39,23.73 -27.59,59.16 -27.59,106.15zm520.19 189.37c-52.8,0 -93.66,-16.23 -122.61,-48.7 -28.95,-32.58 -43.37,-78.56 -43.37,-137.94 0,-61.08 14.65,-108.19 44.05,-141.46 29.4,-33.27 71.18,-49.95 125.56,-49.95 17.48,0 34.97,1.93 52.56,5.67 17.48,3.75 31.22,8.18 41.22,13.4l-17.03 46.89c-12.14,-4.88 -25.43,-8.86 -39.85,-12.14 -14.42,-3.19 -27.13,-4.77 -38.26,-4.77 -74.01,0 -111.03,47.23 -111.03,141.69 0,44.73 8.97,79.13 27.02,103.08 18.16,23.95 44.84,35.87 80.37,35.87 30.31,0 61.53,-6.58 93.43,-19.64l0 49.04c-24.4,12.6 -55.05,18.96 -92.07,18.96zm233.08 -193.45c9.54,-13.51 24.07,-31.22 43.6,-53.14l117.73 -124.66 65.62 0 -147.7 155.31 158.03 209.12 -66.87 0 -128.75 -172.34 -41.67 35.87 0 136.47 -54.5 0 0 -517.69 54.5 0 0 274.51c0,12.15 -0.91,30.99 -2.61,56.54l2.61 0zm456.96 193.45c-53.93,0 -96.39,-16.46 -127.49,-49.27 -31.22,-32.81 -46.78,-78.45 -46.78,-136.8 0,-58.81 14.42,-105.48 43.37,-140.1 28.94,-34.63 67.77,-51.88 116.59,-51.88 45.64,0 81.85,14.99 108.42,45.07 26.57,30.08 39.97,69.71 39.97,118.87l0 34.97 -251.13 0c1.13,42.8 11.92,75.27 32.35,97.53 20.55,22.14 49.39,33.26 86.75,33.26 39.16,0 77.99,-8.17 116.36,-24.63l0 49.27c-19.52,8.52 -38.03,14.53 -55.39,18.27 -17.37,3.63 -38.38,5.45 -63.01,5.45zm-14.99 -331.73c-29.29,0 -52.57,9.54 -69.93,28.62 -17.48,18.95 -27.71,45.29 -30.77,79.02l190.5 0c0,-34.75 -7.72,-61.42 -23.27,-79.93 -15.56,-18.51 -37.69,-27.71 -66.53,-27.71zm360.92 286.09c9.76,0 19.18,-0.68 28.27,-2.16 9.09,-1.48 16.23,-2.95 21.57,-4.54l0 42.35c-6.01,2.84 -14.76,5.22 -26.45,7.15 -11.58,1.93 -22.14,2.84 -31.45,2.84 -70.5,0 -105.7,-37.12 -105.7,-111.49l0 -216.84 -52.22 0 0 -26.56 52.22 -23.05 23.27 -77.77 31.9 0 0 84.47 105.82 0 0 42.91 -105.82 0 0 214.46c0,22.03 5.22,38.83 15.68,50.64 10.44,11.69 24.74,17.59 42.91,17.59zm308 -447.53l137.38 0c64.48,0 111.26,9.65 139.98,28.95 28.84,19.3 43.25,49.83 43.25,91.5 0,28.84 -7.95,52.68 -24.06,71.41 -16.12,18.74 -39.51,30.88 -70.39,36.44l0 3.29c73.9,12.6 110.8,51.43 110.8,116.37 0,43.48 -14.76,77.43 -44.04,101.84 -29.4,24.4 -70.51,36.55 -123.3,36.55l-169.62 0 0 -486.36zm56.54 208.45l93.1 0c39.96,0 68.68,-6.25 86.17,-18.85 17.6,-12.49 26.34,-33.61 26.34,-63.35 0,-27.25 -9.76,-47 -29.28,-59.04 -19.53,-12.14 -50.52,-18.16 -93.1,-18.16l-83.22 0 0 159.4zm0 47.68l0 181.88 101.49 0c39.17,0 68.8,-7.61 88.55,-22.81 19.87,-15.11 29.86,-38.95 29.86,-71.3 0,-30.08 -10.21,-52.34 -30.42,-66.53 -20.33,-14.2 -51.21,-21.24 -92.65,-21.24l-96.84 0zm691.16 47.69c0,59.49 -14.99,105.93 -44.84,139.3 -29.97,33.38 -71.3,50.06 -124.09,50.06 -32.59,0 -61.53,-7.61 -86.85,-22.93 -25.2,-15.33 -44.73,-37.35 -58.47,-65.96 -13.85,-28.61 -20.66,-62.1 -20.66,-100.47 0,-59.49 14.87,-105.81 44.62,-138.96 29.62,-33.15 70.95,-49.72 123.63,-49.72 51.09,0 91.51,16.91 121.59,50.86 30.08,33.95 45.07,79.93 45.07,137.83zm-277.69 0c0,46.55 9.31,82.08 27.93,106.49 18.62,24.4 45.98,36.55 82.19,36.55 36.1,0 63.58,-12.15 82.31,-36.44 18.73,-24.29 28.05,-59.83 28.05,-106.6 0,-46.32 -9.32,-81.51 -28.05,-105.59 -18.73,-24.06 -46.44,-36.1 -82.99,-36.1 -36.21,0 -63.46,11.81 -81.85,35.53 -18.39,23.73 -27.59,59.16 -27.59,106.15zm429.7 182.56l-55.17 0 0 -517.69 55.17 0 0 517.69zm234.9 -38.83c9.76,0 19.18,-0.68 28.27,-2.16 9.09,-1.48 16.23,-2.95 21.57,-4.54l0 42.35c-6.01,2.84 -14.76,5.22 -26.45,7.15 -11.58,1.93 -22.14,2.84 -31.45,2.84 -70.5,0 -105.7,-37.12 -105.7,-111.49l0 -216.84 -52.22 0 0 -26.56 52.22 -23.05 23.27 -77.77 31.9 0 0 84.47 105.82 0 0 42.91 -105.82 0 0 214.46c0,22.03 5.22,38.83 15.68,50.64 10.44,11.69 24.74,17.59 42.91,17.59z"/>
  <path class="fil5" d="M9508.68 6160.46l-165.07 -431.19 -2.61 0c3.07,34.18 4.65,74.81 4.65,121.82l0 309.37 -52.23 0 0 -486.36 85.15 0 154.06 401.22 2.62 0 155.42 -401.22 84.47 0 0 486.36 -56.54 0 0 -313.34c0,-35.99 1.6,-75.04 4.66,-117.17l-2.62 0 -166.43 430.51 -45.53 0zm667.56 -371.81c0,30.99 -8.63,56.31 -26.12,76.06 -17.36,19.76 -42,32.93 -74.01,39.51l0 2.73c39.05,4.88 68,17.26 86.84,37.24 18.85,19.98 28.28,46.21 28.28,78.56 0,46.44 -16.02,82.08 -48.25,107.06 -32.13,24.97 -77.77,37.46 -137.03,37.46 -25.77,0 -49.27,-1.93 -70.73,-5.79 -21.35,-3.97 -42.23,-10.78 -62.33,-20.55l0 -52.56c21.01,10.32 43.48,18.27 67.33,23.72 23.84,5.45 46.44,8.18 67.77,8.18 84.02,0 126.02,-32.93 126.02,-98.78 0,-59.03 -46.32,-88.55 -139.07,-88.55l-47.92 0 0 -47.68 48.59 0c37.92,0 68,-8.41 90.14,-25.09 22.26,-16.8 33.38,-39.97 33.38,-69.71 0,-23.72 -8.17,-42.34 -24.52,-55.85 -16.34,-13.51 -38.37,-20.33 -66.42,-20.33 -21.23,0 -41.33,2.85 -60.17,8.63 -18.85,5.79 -40.42,16.46 -64.6,31.91l-27.93 -37.24c19.98,-15.67 43.02,-27.93 69.02,-36.89 26.11,-8.98 53.48,-13.4 82.31,-13.4 47.34,0 84.01,10.78 110.24,32.35 26.11,21.69 39.17,51.32 39.17,89.01zm678.57 371.81l-64.49 0 -265.78 -408.14 -2.73 0c3.52,47.92 5.34,91.74 5.34,131.7l0 276.45 -52.23 0 0 -486.36 63.81 0 265.21 406.55 2.61 0c-0.45,-6.01 -1.36,-25.2 -2.96,-57.78 -1.59,-32.47 -2.16,-55.63 -1.7,-69.71l0 -279.06 52.91 0 0 486.36zm177.22 -364.43l0 236.48c0,29.63 6.7,51.89 20.32,66.53 13.51,14.65 34.74,21.92 63.58,21.92 38.14,0 65.96,-10.44 83.67,-31.22 17.59,-20.89 26.45,-54.94 26.45,-102.18l0 -191.52 55.17 0 0 364.43 -45.52 0 -7.95 -48.7 -3.07 0c-11.24,17.94 -27.03,31.67 -47.12,41.22 -19.98,9.54 -42.91,14.3 -68.68,14.3 -44.39,0 -77.55,-10.55 -99.68,-31.56 -22.03,-21.12 -33.04,-54.83 -33.04,-101.15l0 -238.53 55.86 0zm483.98 325.6c9.76,0 19.18,-0.68 28.27,-2.16 9.09,-1.48 16.23,-2.95 21.57,-4.54l0 42.35c-6.01,2.84 -14.76,5.22 -26.45,7.15 -11.58,1.93 -22.14,2.84 -31.45,2.84 -70.5,0 -105.7,-37.12 -105.7,-111.49l0 -216.84 -52.22 0 0 -26.56 52.22 -23.05 23.27 -77.77 31.9 0 0 84.47 105.82 0 0 42.91 -105.82 0 0 214.46c0,22.03 5.22,38.83 15.68,50.64 10.44,11.69 24.74,17.59 42.91,17.59z"/>
  <path class="fil5" d="M10012.51 13732.95c0,30.99 -8.63,56.31 -26.12,76.06 -17.36,19.76 -42,32.93 -74.01,39.51l0 2.73c39.05,4.88 68,17.26 86.84,37.24 18.85,19.98 28.28,46.21 28.28,78.56 0,46.44 -16.02,82.08 -48.25,107.06 -32.13,24.97 -77.77,37.46 -137.03,37.46 -25.77,0 -49.27,-1.93 -70.73,-5.79 -21.35,-3.97 -42.23,-10.78 -62.33,-20.55l0 -52.56c21.01,10.32 43.48,18.27 67.33,23.72 23.84,5.45 46.44,8.18 67.77,8.18 84.02,0 126.02,-32.93 126.02,-98.78 0,-59.03 -46.32,-88.55 -139.07,-88.55l-47.92 0 0 -47.68 48.59 0c37.92,0 68,-8.41 90.14,-25.09 22.26,-16.8 33.38,-39.97 33.38,-69.71 0,-23.72 -8.17,-42.34 -24.52,-55.85 -16.34,-13.51 -38.37,-20.33 -66.42,-20.33 -21.23,0 -41.33,2.85 -60.17,8.63 -18.85,5.79 -40.42,16.46 -64.6,31.91l-27.93 -37.24c19.98,-15.67 43.02,-27.93 69.02,-36.89 26.11,-8.98 53.48,-13.4 82.31,-13.4 47.34,0 84.01,10.78 110.24,32.35 26.11,21.69 39.17,51.32 39.17,89.01zm509.87 123.98c0,80.27 -21.81,141.68 -65.4,184.14 -43.59,42.46 -106.26,63.69 -188.12,63.69l-134.65 0 0 -486.36 148.96 0c75.61,0 134.42,21.01 176.31,62.89 41.89,41.89 62.9,100.47 62.9,175.64zm-59.95 2.05c0,-63.47 -15.9,-111.15 -47.69,-143.28 -31.79,-32.13 -79.13,-48.25 -141.8,-48.25l-82.19 0 0 388.28 68.8 0c67.44,0 118.07,-16.57 152.01,-49.72 33.95,-33.16 50.86,-82.2 50.86,-147.02zm476.6 -98.89c0,49.15 -16.8,87.07 -50.3,113.52 -33.6,26.46 -81.62,39.74 -144.18,39.74l-57.22 0 0 191.41 -56.54 0 0 -486.36 126.02 0c121.47,0 182.22,47.23 182.22,141.69zm-251.7 104.9l50.86 0c50.06,0 86.4,-8.06 108.76,-24.29 22.37,-16.12 33.61,-42.12 33.61,-77.77 0,-32.13 -10.56,-56.08 -31.56,-71.87 -21.12,-15.78 -53.93,-23.61 -98.55,-23.61l-63.12 0 0 197.54zm-3106.76 1167.43l-165.07 -431.19 -2.61 0c3.07,34.18 4.65,74.81 4.65,121.82l0 309.37 -52.23 0 0 -486.36 85.15 0 154.06 401.22 2.62 0 155.42 -401.22 84.47 0 0 486.36 -56.54 0 0 -313.34c0,-35.99 1.6,-75.04 4.66,-117.17l-2.62 0 -166.43 430.51 -45.53 0zm667.56 -371.81c0,30.99 -8.63,56.31 -26.12,76.06 -17.36,19.76 -42,32.93 -74.01,39.51l0 2.73c39.05,4.88 68,17.26 86.84,37.24 18.85,19.98 28.28,46.21 28.28,78.56 0,46.44 -16.02,82.08 -48.25,107.06 -32.13,24.97 -77.77,37.46 -137.03,37.46 -25.77,0 -49.27,-1.93 -70.73,-5.79 -21.35,-3.97 -42.23,-10.78 -62.33,-20.55l0 -52.56c21.01,10.32 43.48,18.27 67.33,23.72 23.84,5.45 46.44,8.18 67.77,8.18 84.02,0 126.02,-32.93 126.02,-98.78 0,-59.03 -46.32,-88.55 -139.07,-88.55l-47.92 0 0 -47.68 48.59 0c37.92,0 68,-8.41 90.14,-25.09 22.26,-16.8 33.38,-39.97 33.38,-69.71 0,-23.72 -8.17,-42.34 -24.52,-55.85 -16.34,-13.51 -38.37,-20.33 -66.42,-20.33 -21.23,0 -41.33,2.85 -60.17,8.63 -18.85,5.79 -40.42,16.46 -64.6,31.91l-27.93 -37.24c19.98,-15.67 43.02,-27.93 69.02,-36.89 26.11,-8.98 53.48,-13.4 82.31,-13.4 47.34,0 84.01,10.78 110.24,32.35 26.11,21.69 39.17,51.32 39.17,89.01zm576.28 -114.55l60.85 0 -175.18 486.36 -55.85 0 -174.27 -486.36 59.83 0 111.72 314.71c12.83,36.09 23.04,71.29 30.65,105.47 7.95,-35.99 18.39,-71.75 31.22,-107.51l111.04 -312.66zm88.89 329.13l0 -50.52 163.49 0 0 50.52 -163.49 0zm485.01 57.9c0,33.94 -12.72,60.17 -37.92,78.56 -25.32,18.39 -60.74,27.59 -106.49,27.59 -48.24,0 -85.94,-7.61 -113.07,-22.93l0 -51.31c17.6,8.86 36.33,15.9 56.42,21 20.1,5.11 39.4,7.61 58.02,7.61 28.84,0 50.97,-4.65 66.53,-13.85 15.56,-9.2 23.27,-23.16 23.27,-42 0,-14.19 -6.13,-26.34 -18.5,-36.44 -12.26,-10.1 -36.22,-22.03 -71.98,-35.76 -33.95,-12.71 -58.02,-23.72 -72.32,-33.15 -14.31,-9.43 -24.98,-20.1 -31.91,-32.13 -7.04,-11.92 -10.44,-26.23 -10.44,-42.91 0,-29.74 12.04,-53.14 36.22,-70.39 24.17,-17.14 57.33,-25.77 99.45,-25.77 39.17,0 77.54,7.95 115.01,23.95l-19.64 44.96c-36.56,-15.1 -69.71,-22.59 -99.35,-22.59 -26.22,0 -45.98,4.08 -59.26,12.26 -13.29,8.29 -19.98,19.53 -19.98,33.95 0,9.76 2.5,18.05 7.49,24.98 4.99,6.81 13.06,13.39 24.18,19.64 11.01,6.13 32.36,15.21 63.8,26.91 43.25,15.78 72.44,31.67 87.64,47.57 15.22,16.01 22.82,36.1 22.82,60.29zm144.97 99.34l-55.17 0 0 -517.69 55.17 0 0 517.69zm431.76 -182.56c0,59.49 -14.99,105.93 -44.84,139.3 -29.97,33.38 -71.3,50.06 -124.09,50.06 -32.59,0 -61.53,-7.61 -86.85,-22.93 -25.2,-15.33 -44.73,-37.35 -58.47,-65.96 -13.85,-28.61 -20.66,-62.1 -20.66,-100.47 0,-59.49 14.87,-105.81 44.62,-138.96 29.62,-33.15 70.95,-49.72 123.63,-49.72 51.09,0 91.51,16.91 121.59,50.86 30.08,33.95 45.07,79.93 45.07,137.83zm-277.69 0c0,46.55 9.31,82.08 27.93,106.49 18.62,24.4 45.98,36.55 82.19,36.55 36.1,0 63.58,-12.15 82.31,-36.44 18.73,-24.29 28.05,-59.83 28.05,-106.6 0,-46.32 -9.32,-81.51 -28.05,-105.59 -18.73,-24.06 -46.44,-36.1 -82.99,-36.1 -36.21,0 -63.46,11.81 -81.85,35.53 -18.39,23.73 -27.59,59.16 -27.59,106.15zm492.26 143.73c9.76,0 19.18,-0.68 28.27,-2.16 9.09,-1.48 16.23,-2.95 21.57,-4.54l0 42.35c-6.01,2.84 -14.76,5.22 -26.45,7.15 -11.58,1.93 -22.14,2.84 -31.45,2.84 -70.5,0 -105.7,-37.12 -105.7,-111.49l0 -216.84 -52.22 0 0 -26.56 52.22 -23.05 23.27 -77.77 31.9 0 0 84.47 105.82 0 0 42.91 -105.82 0 0 214.46c0,22.03 5.22,38.83 15.68,50.64 10.44,11.69 24.74,17.59 42.91,17.59zm687.88 38.83l-64.49 0 -265.78 -408.14 -2.73 0c3.52,47.92 5.34,91.74 5.34,131.7l0 276.45 -52.23 0 0 -486.36 63.81 0 265.21 406.55 2.61 0c-0.45,-6.01 -1.36,-25.2 -2.96,-57.78 -1.59,-32.47 -2.16,-55.63 -1.7,-69.71l0 -279.06 52.91 0 0 486.36zm177.22 -364.43l0 236.48c0,29.63 6.7,51.89 20.32,66.53 13.51,14.65 34.74,21.92 63.58,21.92 38.14,0 65.96,-10.44 83.67,-31.22 17.59,-20.89 26.45,-54.94 26.45,-102.18l0 -191.52 55.17 0 0 364.43 -45.52 0 -7.95 -48.7 -3.07 0c-11.24,17.94 -27.03,31.67 -47.12,41.22 -19.98,9.54 -42.91,14.3 -68.68,14.3 -44.39,0 -77.55,-10.55 -99.68,-31.56 -22.03,-21.12 -33.04,-54.83 -33.04,-101.15l0 -238.53 55.86 0zm483.98 325.6c9.76,0 19.18,-0.68 28.27,-2.16 9.09,-1.48 16.23,-2.95 21.57,-4.54l0 42.35c-6.01,2.84 -14.76,5.22 -26.45,7.15 -11.58,1.93 -22.14,2.84 -31.45,2.84 -70.5,0 -105.7,-37.12 -105.7,-111.49l0 -216.84 -52.22 0 0 -26.56 52.22 -23.05 23.27 -77.77 31.9 0 0 84.47 105.82 0 0 42.91 -105.82 0 0 214.46c0,22.03 5.22,38.83 15.68,50.64 10.44,11.69 24.74,17.59 42.91,17.59zm308 -447.53l137.38 0c64.48,0 111.26,9.65 139.98,28.95 28.84,19.3 43.25,49.83 43.25,91.5 0,28.84 -7.95,52.68 -24.06,71.41 -16.12,18.74 -39.51,30.88 -70.39,36.44l0 3.29c73.9,12.6 110.8,51.43 110.8,116.37 0,43.48 -14.76,77.43 -44.04,101.84 -29.4,24.4 -70.51,36.55 -123.3,36.55l-169.62 0 0 -486.36zm56.54 208.45l93.1 0c39.96,0 68.68,-6.25 86.17,-18.85 17.6,-12.49 26.34,-33.61 26.34,-63.35 0,-27.25 -9.76,-47 -29.28,-59.04 -19.53,-12.14 -50.52,-18.16 -93.1,-18.16l-83.22 0 0 159.4zm0 47.68l0 181.88 101.49 0c39.17,0 68.8,-7.61 88.55,-22.81 19.87,-15.11 29.86,-38.95 29.86,-71.3 0,-30.08 -10.21,-52.34 -30.42,-66.53 -20.33,-14.2 -51.21,-21.24 -92.65,-21.24l-96.84 0zm542.79 -141c16.12,0 30.65,1.36 43.48,3.97l-7.61 51.43c-15.1,-3.29 -28.39,-5 -39.96,-5 -29.4,0 -54.62,11.92 -75.61,35.88 -20.89,23.95 -31.34,53.81 -31.34,89.46l0 195.5 -55.28 0 0 -364.43 45.64 0 6.24 67.33 2.73 0c13.51,-23.73 29.74,-42 48.82,-54.83 19.07,-12.83 39.96,-19.3 62.89,-19.3zm167 371.24l-55.17 0 0 -364.43 55.17 0 0 364.43zm-59.83 -463.43c0,-12.6 3.07,-21.8 9.31,-27.71 6.25,-5.9 13.97,-8.85 23.27,-8.85 8.86,0 16.58,2.95 22.93,8.97 6.47,6.02 9.65,15.22 9.65,27.59 0,12.49 -3.19,21.8 -9.65,27.82 -6.35,6.13 -14.08,9.2 -22.93,9.2 -9.31,0 -17.02,-3.07 -23.27,-9.2 -6.24,-6.02 -9.31,-15.33 -9.31,-27.82zm322.66 470.24c-52.8,0 -93.66,-16.23 -122.61,-48.7 -28.95,-32.58 -43.37,-78.56 -43.37,-137.94 0,-61.08 14.65,-108.19 44.05,-141.46 29.4,-33.27 71.18,-49.95 125.56,-49.95 17.48,0 34.97,1.93 52.56,5.67 17.48,3.75 31.22,8.18 41.22,13.4l-17.03 46.89c-12.14,-4.88 -25.43,-8.86 -39.85,-12.14 -14.42,-3.19 -27.13,-4.77 -38.26,-4.77 -74.01,0 -111.03,47.23 -111.03,141.69 0,44.73 8.97,79.13 27.02,103.08 18.16,23.95 44.84,35.87 80.37,35.87 30.31,0 61.53,-6.58 93.43,-19.64l0 49.04c-24.4,12.6 -55.05,18.96 -92.07,18.96zm233.08 -193.45c9.54,-13.51 24.07,-31.22 43.6,-53.14l117.73 -124.66 65.62 0 -147.7 155.31 158.03 209.12 -66.87 0 -128.75 -172.34 -41.67 35.87 0 136.47 -54.5 0 0 -517.69 54.5 0 0 274.51c0,12.15 -0.91,30.99 -2.61,56.54l2.61 0z"/>
  <path class="fil5" d="M11851.7 3418.36c0,30.99 -8.63,56.31 -26.12,76.06 -17.36,19.76 -42,32.93 -74.01,39.51l0 2.73c39.05,4.88 68,17.26 86.84,37.24 18.85,19.98 28.28,46.21 28.28,78.56 0,46.44 -16.02,82.08 -48.25,107.06 -32.13,24.97 -77.77,37.46 -137.03,37.46 -25.77,0 -49.27,-1.93 -70.73,-5.79 -21.35,-3.97 -42.23,-10.78 -62.33,-20.55l0 -52.56c21.01,10.32 43.48,18.27 67.33,23.72 23.84,5.45 46.44,8.18 67.77,8.18 84.02,0 126.02,-32.93 126.02,-98.78 0,-59.03 -46.32,-88.55 -139.07,-88.55l-47.92 0 0 -47.68 48.59 0c37.92,0 68,-8.41 90.14,-25.09 22.26,-16.8 33.38,-39.97 33.38,-69.71 0,-23.72 -8.17,-42.34 -24.52,-55.85 -16.34,-13.51 -38.37,-20.33 -66.42,-20.33 -21.23,0 -41.33,2.85 -60.17,8.63 -18.85,5.79 -40.42,16.46 -64.6,31.91l-27.93 -37.24c19.98,-15.67 43.02,-27.93 69.02,-36.89 26.11,-8.98 53.48,-13.4 82.31,-13.4 47.34,0 84.01,10.78 110.24,32.35 26.11,21.69 39.17,51.32 39.17,89.01zm509.87 123.98c0,80.27 -21.81,141.68 -65.4,184.14 -43.59,42.46 -106.26,63.69 -188.12,63.69l-134.65 0 0 -486.36 148.96 0c75.61,0 134.42,21.01 176.31,62.89 41.89,41.89 62.9,100.47 62.9,175.64zm-59.95 2.05c0,-63.47 -15.9,-111.15 -47.69,-143.28 -31.79,-32.13 -79.13,-48.25 -141.8,-48.25l-82.19 0 0 388.28 68.8 0c67.44,0 118.07,-16.57 152.01,-49.72 33.95,-33.16 50.86,-82.2 50.86,-147.02zm476.6 -98.89c0,49.15 -16.8,87.07 -50.3,113.52 -33.6,26.46 -81.62,39.74 -144.18,39.74l-57.22 0 0 191.41 -56.54 0 0 -486.36 126.02 0c121.47,0 182.22,47.23 182.22,141.69zm-251.7 104.9l50.86 0c50.06,0 86.4,-8.06 108.76,-24.29 22.37,-16.12 33.61,-42.12 33.61,-77.77 0,-32.13 -10.56,-56.08 -31.56,-71.87 -21.12,-15.78 -53.93,-23.61 -98.55,-23.61l-63.12 0 0 197.54zm-2381 1167.43l0 -486.36 56.54 0 0 435.27 214.46 0 0 51.09 -271 0zm659.83 -182.56c0,59.49 -14.99,105.93 -44.84,139.3 -29.97,33.38 -71.3,50.06 -124.09,50.06 -32.59,0 -61.53,-7.61 -86.85,-22.93 -25.2,-15.33 -44.73,-37.35 -58.47,-65.96 -13.85,-28.61 -20.66,-62.1 -20.66,-100.47 0,-59.49 14.87,-105.81 44.62,-138.96 29.62,-33.15 70.95,-49.72 123.63,-49.72 51.09,0 91.51,16.91 121.59,50.86 30.08,33.95 45.07,79.93 45.07,137.83zm-277.69 0c0,46.55 9.31,82.08 27.93,106.49 18.62,24.4 45.98,36.55 82.19,36.55 36.1,0 63.58,-12.15 82.31,-36.44 18.73,-24.29 28.05,-59.83 28.05,-106.6 0,-46.32 -9.32,-81.51 -28.05,-105.59 -18.73,-24.06 -46.44,-36.1 -82.99,-36.1 -36.21,0 -63.46,11.81 -81.85,35.53 -18.39,23.73 -27.59,59.16 -27.59,106.15zm520.19 189.37c-52.8,0 -93.66,-16.23 -122.61,-48.7 -28.95,-32.58 -43.37,-78.56 -43.37,-137.94 0,-61.08 14.65,-108.19 44.05,-141.46 29.4,-33.27 71.18,-49.95 125.56,-49.95 17.48,0 34.97,1.93 52.56,5.67 17.48,3.75 31.22,8.18 41.22,13.4l-17.03 46.89c-12.14,-4.88 -25.43,-8.86 -39.85,-12.14 -14.42,-3.19 -27.13,-4.77 -38.26,-4.77 -74.01,0 -111.03,47.23 -111.03,141.69 0,44.73 8.97,79.13 27.02,103.08 18.16,23.95 44.84,35.87 80.37,35.87 30.31,0 61.53,-6.58 93.43,-19.64l0 49.04c-24.4,12.6 -55.05,18.96 -92.07,18.96zm233.08 -193.45c9.54,-13.51 24.07,-31.22 43.6,-53.14l117.73 -124.66 65.62 0 -147.7 155.31 158.03 209.12 -66.87 0 -128.75 -172.34 -41.67 35.87 0 136.47 -54.5 0 0 -517.69 54.5 0 0 274.51c0,12.15 -0.91,30.99 -2.61,56.54l2.61 0zm358.18 186.64l-55.17 0 0 -364.43 55.17 0 0 364.43zm-59.83 -463.43c0,-12.6 3.07,-21.8 9.31,-27.71 6.25,-5.9 13.97,-8.85 23.27,-8.85 8.86,0 16.58,2.95 22.93,8.97 6.47,6.02 9.65,15.22 9.65,27.59 0,12.49 -3.19,21.8 -9.65,27.82 -6.35,6.13 -14.08,9.2 -22.93,9.2 -9.31,0 -17.02,-3.07 -23.27,-9.2 -6.24,-6.02 -9.31,-15.33 -9.31,-27.82zm426.54 463.43l0 -235.8c0,-29.74 -6.7,-51.88 -20.32,-66.53 -13.51,-14.65 -34.75,-21.92 -63.58,-21.92 -38.14,0 -66.08,10.33 -83.78,30.88 -17.83,20.67 -26.69,54.72 -26.69,102.18l0 191.18 -55.17 0 0 -364.43 44.85 0 8.97 49.73 2.73 0c11.35,-17.94 27.13,-31.91 47.57,-41.78 20.44,-9.87 43.14,-14.76 68.23,-14.76 43.93,0 76.97,10.55 99.12,31.79 22.25,21.12 33.26,55.05 33.26,101.6l0 237.85 -55.17 0zm466.94 -364.43l0 34.97 -67.44 7.95c6.13,7.72 11.69,17.94 16.57,30.43 4.88,12.48 7.27,26.56 7.27,42.34 0,35.64 -12.15,64.14 -36.55,85.38 -24.41,21.23 -57.9,31.9 -100.47,31.9 -10.9,0 -21.01,-0.91 -30.65,-2.62 -23.5,12.38 -35.2,28.05 -35.2,46.89 0,9.99 4.08,17.37 12.26,22.15 8.29,4.76 22.37,7.15 42.34,7.15l64.48 0c39.51,0 69.82,8.29 91.06,24.98 21.12,16.57 31.67,40.76 31.67,72.43 0,40.31 -16.11,71.07 -48.47,92.19 -32.47,21.23 -79.7,31.79 -141.8,31.79 -47.69,0 -84.47,-8.86 -110.24,-26.57 -25.88,-17.71 -38.83,-42.8 -38.83,-75.04 0,-22.14 7.16,-41.33 21.35,-57.56 14.19,-16.12 34.18,-27.14 59.83,-32.81 -9.31,-4.31 -17.14,-10.78 -23.38,-19.64 -6.36,-8.97 -9.54,-19.3 -9.54,-30.99 0,-13.4 3.63,-24.98 10.67,-34.98 7.15,-9.98 18.27,-19.64 33.6,-28.94 -18.84,-7.84 -34.17,-21.01 -46.09,-39.62 -11.81,-18.62 -17.82,-39.97 -17.82,-63.92 0,-39.85 12.03,-70.62 35.98,-92.19 23.95,-21.69 57.9,-32.47 101.84,-32.47 19.07,0 36.21,2.27 51.54,6.81l126.01 0zm-290.75 425.63c0,19.64 8.29,34.63 24.98,44.84 16.57,10.1 40.42,15.22 71.52,15.22 46.32,0 80.72,-6.93 102.97,-20.78 22.26,-13.74 33.5,-32.58 33.5,-56.19 0,-19.76 -6.13,-33.38 -18.39,-40.99 -12.15,-7.61 -35.09,-11.47 -68.8,-11.47l-66.19 0c-25.09,0 -44.62,6.02 -58.58,17.94 -13.97,11.92 -21.01,29.06 -21.01,51.43zm29.97 -309.03c0,25.54 7.15,44.84 21.57,57.9 14.42,13.06 34.52,19.64 60.29,19.64 53.93,0 80.83,-26.23 80.83,-78.57 0,-54.83 -27.25,-82.19 -81.85,-82.19 -26,0 -45.98,7.04 -59.95,21.01 -13.96,13.96 -20.89,34.74 -20.89,62.21zm795.39 118.64c0,42.8 -15.56,76.18 -46.55,100.13 -31.11,23.95 -73.23,35.87 -126.47,35.87 -57.68,0 -102.07,-7.49 -133.06,-22.37l0 -54.61c19.99,8.4 41.67,15.1 65.17,19.98 23.5,4.88 46.78,7.27 69.93,7.27 37.69,0 66.08,-7.15 85.15,-21.46 19.08,-14.2 28.62,-34.06 28.62,-59.61 0,-16.8 -3.4,-30.65 -10.1,-41.33 -6.81,-10.78 -18.17,-20.66 -33.95,-29.85 -15.9,-9.09 -40.08,-19.42 -72.44,-30.88 -45.18,-16.23 -77.54,-35.42 -96.95,-57.56 -19.41,-22.14 -29.17,-51.09 -29.17,-86.84 0,-37.47 14.08,-67.33 42.23,-89.47 28.27,-22.14 65.5,-33.26 111.83,-33.26 48.36,0 92.87,8.86 133.39,26.57l-17.59 49.15c-40.19,-16.91 -79.25,-25.32 -117.17,-25.32 -29.85,0 -53.36,6.48 -70.16,19.3 -16.91,12.95 -25.32,30.77 -25.32,53.71 0,16.91 3.19,30.65 9.32,41.44 6.24,10.78 16.68,20.66 31.45,29.63 14.76,8.97 37.34,18.84 67.77,29.74 50.97,18.16 86.06,37.69 105.24,58.58 19.19,20.78 28.85,47.92 28.85,81.17zm340.59 129.2l0 -235.8c0,-29.74 -6.7,-51.88 -20.32,-66.53 -13.51,-14.65 -34.75,-21.92 -63.58,-21.92 -38.37,0 -66.3,10.44 -84.01,31.22 -17.6,20.9 -26.46,55.06 -26.46,102.52l0 190.5 -55.17 0 0 -517.69 55.17 0 0 156.79c0,18.84 -0.91,34.51 -2.61,46.89l3.29 0c10.89,-17.48 26.34,-31.34 46.43,-41.45 20.1,-10.1 43.03,-15.1 68.68,-15.1 44.62,0 78.12,10.56 100.36,31.79 22.26,21.12 33.38,54.83 33.38,100.92l0 237.85 -55.17 0zm483.18 -182.56c0,59.49 -14.99,105.93 -44.84,139.3 -29.97,33.38 -71.3,50.06 -124.09,50.06 -32.59,0 -61.53,-7.61 -86.85,-22.93 -25.2,-15.33 -44.73,-37.35 -58.47,-65.96 -13.85,-28.61 -20.66,-62.1 -20.66,-100.47 0,-59.49 14.87,-105.81 44.62,-138.96 29.62,-33.15 70.95,-49.72 123.63,-49.72 51.09,0 91.51,16.91 121.59,50.86 30.08,33.95 45.07,79.93 45.07,137.83zm-277.69 0c0,46.55 9.31,82.08 27.93,106.49 18.62,24.4 45.98,36.55 82.19,36.55 36.1,0 63.58,-12.15 82.31,-36.44 18.73,-24.29 28.05,-59.83 28.05,-106.6 0,-46.32 -9.32,-81.51 -28.05,-105.59 -18.73,-24.06 -46.44,-36.1 -82.99,-36.1 -36.21,0 -63.46,11.81 -81.85,35.53 -18.39,23.73 -27.59,59.16 -27.59,106.15zm528.48 189.37c-53.93,0 -96.39,-16.46 -127.49,-49.27 -31.22,-32.81 -46.78,-78.45 -46.78,-136.8 0,-58.81 14.42,-105.48 43.37,-140.1 28.94,-34.63 67.77,-51.88 116.59,-51.88 45.64,0 81.85,14.99 108.42,45.07 26.57,30.08 39.97,69.71 39.97,118.87l0 34.97 -251.13 0c1.13,42.8 11.92,75.27 32.35,97.53 20.55,22.14 49.39,33.26 86.75,33.26 39.16,0 77.99,-8.17 116.36,-24.63l0 49.27c-19.52,8.52 -38.03,14.53 -55.39,18.27 -17.37,3.63 -38.38,5.45 -63.01,5.45zm-14.99 -331.73c-29.29,0 -52.57,9.54 -69.93,28.62 -17.48,18.95 -27.71,45.29 -30.77,79.02l190.5 0c0,-34.75 -7.72,-61.42 -23.27,-79.93 -15.56,-18.51 -37.69,-27.71 -66.53,-27.71z"/>
  <path class="fil5" d="M19259.57 4184.7c0,30.99 -8.63,56.31 -26.12,76.06 -17.36,19.76 -42,32.93 -74.01,39.51l0 2.73c39.05,4.88 68,17.26 86.84,37.24 18.85,19.98 28.28,46.21 28.28,78.56 0,46.44 -16.02,82.08 -48.25,107.06 -32.13,24.97 -77.77,37.46 -137.03,37.46 -25.77,0 -49.27,-1.93 -70.73,-5.79 -21.35,-3.97 -42.23,-10.78 -62.33,-20.55l0 -52.56c21.01,10.32 43.48,18.27 67.33,23.72 23.84,5.45 46.44,8.18 67.77,8.18 84.02,0 126.02,-32.93 126.02,-98.78 0,-59.03 -46.32,-88.55 -139.07,-88.55l-47.92 0 0 -47.68 48.59 0c37.92,0 68,-8.41 90.14,-25.09 22.26,-16.8 33.38,-39.97 33.38,-69.71 0,-23.72 -8.17,-42.34 -24.52,-55.85 -16.34,-13.51 -38.37,-20.33 -66.42,-20.33 -21.23,0 -41.33,2.85 -60.17,8.63 -18.85,5.79 -40.42,16.46 -64.6,31.91l-27.93 -37.24c19.98,-15.67 43.02,-27.93 69.02,-36.89 26.11,-8.98 53.48,-13.4 82.31,-13.4 47.34,0 84.01,10.78 110.24,32.35 26.11,21.69 39.17,51.32 39.17,89.01zm509.87 123.98c0,80.27 -21.81,141.68 -65.4,184.14 -43.59,42.46 -106.26,63.69 -188.12,63.69l-134.65 0 0 -486.36 148.96 0c75.61,0 134.42,21.01 176.31,62.89 41.89,41.89 62.9,100.47 62.9,175.64zm-59.95 2.05c0,-63.47 -15.9,-111.15 -47.69,-143.28 -31.79,-32.13 -79.13,-48.25 -141.8,-48.25l-82.19 0 0 388.28 68.8 0c67.44,0 118.07,-16.57 152.01,-49.72 33.95,-33.16 50.86,-82.2 50.86,-147.02zm476.6 -98.89c0,49.15 -16.8,87.07 -50.3,113.52 -33.6,26.46 -81.62,39.74 -144.18,39.74l-57.22 0 0 191.41 -56.54 0 0 -486.36 126.02 0c121.47,0 182.22,47.23 182.22,141.69zm-251.7 104.9l50.86 0c50.06,0 86.4,-8.06 108.76,-24.29 22.37,-16.12 33.61,-42.12 33.61,-77.77 0,-32.13 -10.56,-56.08 -31.56,-71.87 -21.12,-15.78 -53.93,-23.61 -98.55,-23.61l-63.12 0 0 197.54zm-1964.23 1167.43l-56.54 0 0 -435.95 -153.94 0 0 -50.41 364.31 0 0 50.41 -153.83 0 0 435.95zm533.47 -182.56c0,59.49 -14.99,105.93 -44.84,139.3 -29.97,33.38 -71.3,50.06 -124.09,50.06 -32.59,0 -61.53,-7.61 -86.85,-22.93 -25.2,-15.33 -44.73,-37.35 -58.47,-65.96 -13.85,-28.61 -20.66,-62.1 -20.66,-100.47 0,-59.49 14.87,-105.81 44.62,-138.96 29.62,-33.15 70.95,-49.72 123.63,-49.72 51.09,0 91.51,16.91 121.59,50.86 30.08,33.95 45.07,79.93 45.07,137.83zm-277.69 0c0,46.55 9.31,82.08 27.93,106.49 18.62,24.4 45.98,36.55 82.19,36.55 36.1,0 63.58,-12.15 82.31,-36.44 18.73,-24.29 28.05,-59.83 28.05,-106.6 0,-46.32 -9.32,-81.51 -28.05,-105.59 -18.73,-24.06 -46.44,-36.1 -82.99,-36.1 -36.21,0 -63.46,11.81 -81.85,35.53 -18.39,23.73 -27.59,59.16 -27.59,106.15zm689.12 0c0,59.49 -14.99,105.93 -44.84,139.3 -29.97,33.38 -71.3,50.06 -124.09,50.06 -32.59,0 -61.53,-7.61 -86.85,-22.93 -25.2,-15.33 -44.73,-37.35 -58.47,-65.96 -13.85,-28.61 -20.66,-62.1 -20.66,-100.47 0,-59.49 14.87,-105.81 44.62,-138.96 29.62,-33.15 70.95,-49.72 123.63,-49.72 51.09,0 91.51,16.91 121.59,50.86 30.08,33.95 45.07,79.93 45.07,137.83zm-277.69 0c0,46.55 9.31,82.08 27.93,106.49 18.62,24.4 45.98,36.55 82.19,36.55 36.1,0 63.58,-12.15 82.31,-36.44 18.73,-24.29 28.05,-59.83 28.05,-106.6 0,-46.32 -9.32,-81.51 -28.05,-105.59 -18.73,-24.06 -46.44,-36.1 -82.99,-36.1 -36.21,0 -63.46,11.81 -81.85,35.53 -18.39,23.73 -27.59,59.16 -27.59,106.15zm429.7 182.56l-55.17 0 0 -517.69 55.17 0 0 517.69zm576.97 -129.2c0,42.8 -15.56,76.18 -46.55,100.13 -31.11,23.95 -73.23,35.87 -126.47,35.87 -57.68,0 -102.07,-7.49 -133.06,-22.37l0 -54.61c19.99,8.4 41.67,15.1 65.17,19.98 23.5,4.88 46.78,7.27 69.93,7.27 37.69,0 66.08,-7.15 85.15,-21.46 19.08,-14.2 28.62,-34.06 28.62,-59.61 0,-16.8 -3.4,-30.65 -10.1,-41.33 -6.81,-10.78 -18.17,-20.66 -33.95,-29.85 -15.9,-9.09 -40.08,-19.42 -72.44,-30.88 -45.18,-16.23 -77.54,-35.42 -96.95,-57.56 -19.41,-22.14 -29.17,-51.09 -29.17,-86.84 0,-37.47 14.08,-67.33 42.23,-89.47 28.27,-22.14 65.5,-33.26 111.83,-33.26 48.36,0 92.87,8.86 133.39,26.57l-17.59 49.15c-40.19,-16.91 -79.25,-25.32 -117.17,-25.32 -29.85,0 -53.36,6.48 -70.16,19.3 -16.91,12.95 -25.32,30.77 -25.32,53.71 0,16.91 3.19,30.65 9.32,41.44 6.24,10.78 16.68,20.66 31.45,29.63 14.76,8.97 37.34,18.84 67.77,29.74 50.97,18.16 86.06,37.69 105.24,58.58 19.19,20.78 28.85,47.92 28.85,81.17zm405.64 -53.36c0,59.49 -14.99,105.93 -44.84,139.3 -29.97,33.38 -71.3,50.06 -124.09,50.06 -32.59,0 -61.53,-7.61 -86.85,-22.93 -25.2,-15.33 -44.73,-37.35 -58.47,-65.96 -13.85,-28.61 -20.66,-62.1 -20.66,-100.47 0,-59.49 14.87,-105.81 44.62,-138.96 29.62,-33.15 70.95,-49.72 123.63,-49.72 51.09,0 91.51,16.91 121.59,50.86 30.08,33.95 45.07,79.93 45.07,137.83zm-277.69 0c0,46.55 9.31,82.08 27.93,106.49 18.62,24.4 45.98,36.55 82.19,36.55 36.1,0 63.58,-12.15 82.31,-36.44 18.73,-24.29 28.05,-59.83 28.05,-106.6 0,-46.32 -9.32,-81.51 -28.05,-105.59 -18.73,-24.06 -46.44,-36.1 -82.99,-36.1 -36.21,0 -63.46,11.81 -81.85,35.53 -18.39,23.73 -27.59,59.16 -27.59,106.15zm520.19 189.37c-52.8,0 -93.66,-16.23 -122.61,-48.7 -28.95,-32.58 -43.37,-78.56 -43.37,-137.94 0,-61.08 14.65,-108.19 44.05,-141.46 29.4,-33.27 71.18,-49.95 125.56,-49.95 17.48,0 34.97,1.93 52.56,5.67 17.48,3.75 31.22,8.18 41.22,13.4l-17.03 46.89c-12.14,-4.88 -25.43,-8.86 -39.85,-12.14 -14.42,-3.19 -27.13,-4.77 -38.26,-4.77 -74.01,0 -111.03,47.23 -111.03,141.69 0,44.73 8.97,79.13 27.02,103.08 18.16,23.95 44.84,35.87 80.37,35.87 30.31,0 61.53,-6.58 93.43,-19.64l0 49.04c-24.4,12.6 -55.05,18.96 -92.07,18.96zm233.08 -193.45c9.54,-13.51 24.07,-31.22 43.6,-53.14l117.73 -124.66 65.62 0 -147.7 155.31 158.03 209.12 -66.87 0 -128.75 -172.34 -41.67 35.87 0 136.47 -54.5 0 0 -517.69 54.5 0 0 274.51c0,12.15 -0.91,30.99 -2.61,56.54l2.61 0zm456.96 193.45c-53.93,0 -96.39,-16.46 -127.49,-49.27 -31.22,-32.81 -46.78,-78.45 -46.78,-136.8 0,-58.81 14.42,-105.48 43.37,-140.1 28.94,-34.63 67.77,-51.88 116.59,-51.88 45.64,0 81.85,14.99 108.42,45.07 26.57,30.08 39.97,69.71 39.97,118.87l0 34.97 -251.13 0c1.13,42.8 11.92,75.27 32.35,97.53 20.55,22.14 49.39,33.26 86.75,33.26 39.16,0 77.99,-8.17 116.36,-24.63l0 49.27c-19.52,8.52 -38.03,14.53 -55.39,18.27 -17.37,3.63 -38.38,5.45 -63.01,5.45zm-14.99 -331.73c-29.29,0 -52.57,9.54 -69.93,28.62 -17.48,18.95 -27.71,45.29 -30.77,79.02l190.5 0c0,-34.75 -7.72,-61.42 -23.27,-79.93 -15.56,-18.51 -37.69,-27.71 -66.53,-27.71zm360.92 286.09c9.76,0 19.18,-0.68 28.27,-2.16 9.09,-1.48 16.23,-2.95 21.57,-4.54l0 42.35c-6.01,2.84 -14.76,5.22 -26.45,7.15 -11.58,1.93 -22.14,2.84 -31.45,2.84 -70.5,0 -105.7,-37.12 -105.7,-111.49l0 -216.84 -52.22 0 0 -26.56 52.22 -23.05 23.27 -77.77 31.9 0 0 84.47 105.82 0 0 42.91 -105.82 0 0 214.46c0,22.03 5.22,38.83 15.68,50.64 10.44,11.69 24.74,17.59 42.91,17.59z"/>
  <path class="fil5" d="M19796.01 12026.81c0,30.99 -8.63,56.31 -26.12,76.06 -17.36,19.76 -42,32.93 -74.01,39.51l0 2.73c39.05,4.88 68,17.26 86.84,37.24 18.85,19.98 28.28,46.21 28.28,78.56 0,46.44 -16.02,82.08 -48.25,107.06 -32.13,24.97 -77.77,37.46 -137.03,37.46 -25.77,0 -49.27,-1.93 -70.73,-5.79 -21.35,-3.97 -42.23,-10.78 -62.33,-20.55l0 -52.56c21.01,10.32 43.48,18.27 67.33,23.72 23.84,5.45 46.44,8.18 67.77,8.18 84.02,0 126.02,-32.93 126.02,-98.78 0,-59.03 -46.32,-88.55 -139.07,-88.55l-47.92 0 0 -47.68 48.59 0c37.92,0 68,-8.41 90.14,-25.09 22.26,-16.8 33.38,-39.97 33.38,-69.71 0,-23.72 -8.17,-42.34 -24.52,-55.85 -16.34,-13.51 -38.37,-20.33 -66.42,-20.33 -21.23,0 -41.33,2.85 -60.17,8.63 -18.85,5.79 -40.42,16.46 -64.6,31.91l-27.93 -37.24c19.98,-15.67 43.02,-27.93 69.02,-36.89 26.11,-8.98 53.48,-13.4 82.31,-13.4 47.34,0 84.01,10.78 110.24,32.35 26.11,21.69 39.17,51.32 39.17,89.01zm509.87 123.98c0,80.27 -21.81,141.68 -65.4,184.14 -43.59,42.46 -106.26,63.69 -188.12,63.69l-134.65 0 0 -486.36 148.96 0c75.61,0 134.42,21.01 176.31,62.89 41.89,41.89 62.9,100.47 62.9,175.64zm-59.95 2.05c0,-63.47 -15.9,-111.15 -47.69,-143.28 -31.79,-32.13 -79.13,-48.25 -141.8,-48.25l-82.19 0 0 388.28 68.8 0c67.44,0 118.07,-16.57 152.01,-49.72 33.95,-33.16 50.86,-82.2 50.86,-147.02zm476.6 -98.89c0,49.15 -16.8,87.07 -50.3,113.52 -33.6,26.46 -81.62,39.74 -144.18,39.74l-57.22 0 0 191.41 -56.54 0 0 -486.36 126.02 0c121.47,0 182.22,47.23 182.22,141.69zm-251.7 104.9l50.86 0c50.06,0 86.4,-8.06 108.76,-24.29 22.37,-16.12 33.61,-42.12 33.61,-77.77 0,-32.13 -10.56,-56.08 -31.56,-71.87 -21.12,-15.78 -53.93,-23.61 -98.55,-23.61l-63.12 0 0 197.54zm-1606.27 1167.43l-56.54 0 0 -435.95 -153.94 0 0 -50.41 364.31 0 0 50.41 -153.83 0 0 435.95zm533.47 -182.56c0,59.49 -14.99,105.93 -44.84,139.3 -29.97,33.38 -71.3,50.06 -124.09,50.06 -32.59,0 -61.53,-7.61 -86.85,-22.93 -25.2,-15.33 -44.73,-37.35 -58.47,-65.96 -13.85,-28.61 -20.66,-62.1 -20.66,-100.47 0,-59.49 14.87,-105.81 44.62,-138.96 29.62,-33.15 70.95,-49.72 123.63,-49.72 51.09,0 91.51,16.91 121.59,50.86 30.08,33.95 45.07,79.93 45.07,137.83zm-277.69 0c0,46.55 9.31,82.08 27.93,106.49 18.62,24.4 45.98,36.55 82.19,36.55 36.1,0 63.58,-12.15 82.31,-36.44 18.73,-24.29 28.05,-59.83 28.05,-106.6 0,-46.32 -9.32,-81.51 -28.05,-105.59 -18.73,-24.06 -46.44,-36.1 -82.99,-36.1 -36.21,0 -63.46,11.81 -81.85,35.53 -18.39,23.73 -27.59,59.16 -27.59,106.15zm689.12 0c0,59.49 -14.99,105.93 -44.84,139.3 -29.97,33.38 -71.3,50.06 -124.09,50.06 -32.59,0 -61.53,-7.61 -86.85,-22.93 -25.2,-15.33 -44.73,-37.35 -58.47,-65.96 -13.85,-28.61 -20.66,-62.1 -20.66,-100.47 0,-59.49 14.87,-105.81 44.62,-138.96 29.62,-33.15 70.95,-49.72 123.63,-49.72 51.09,0 91.51,16.91 121.59,50.86 30.08,33.95 45.07,79.93 45.07,137.83zm-277.69 0c0,46.55 9.31,82.08 27.93,106.49 18.62,24.4 45.98,36.55 82.19,36.55 36.1,0 63.58,-12.15 82.31,-36.44 18.73,-24.29 28.05,-59.83 28.05,-106.6 0,-46.32 -9.32,-81.51 -28.05,-105.59 -18.73,-24.06 -46.44,-36.1 -82.99,-36.1 -36.21,0 -63.46,11.81 -81.85,35.53 -18.39,23.73 -27.59,59.16 -27.59,106.15zm429.7 182.56l-55.17 0 0 -517.69 55.17 0 0 517.69zm610.69 -344.67c0,49.15 -16.8,87.07 -50.3,113.52 -33.6,26.46 -81.62,39.74 -144.18,39.74l-57.22 0 0 191.41 -56.54 0 0 -486.36 126.02 0c121.47,0 182.22,47.23 182.22,141.69zm-251.7 104.9l50.86 0c50.06,0 86.4,-8.06 108.76,-24.29 22.37,-16.12 33.61,-42.12 33.61,-77.77 0,-32.13 -10.56,-56.08 -31.56,-71.87 -21.12,-15.78 -53.93,-23.61 -98.55,-23.61l-63.12 0 0 197.54zm400.42 239.78l-55.17 0 0 -517.69 55.17 0 0 517.69zm169.06 -364.43l0 236.48c0,29.63 6.7,51.89 20.32,66.53 13.51,14.65 34.74,21.92 63.58,21.92 38.14,0 65.96,-10.44 83.67,-31.22 17.59,-20.89 26.45,-54.94 26.45,-102.18l0 -191.52 55.17 0 0 364.43 -45.52 0 -7.95 -48.7 -3.07 0c-11.24,17.94 -27.03,31.67 -47.12,41.22 -19.98,9.54 -42.91,14.3 -68.68,14.3 -44.39,0 -77.55,-10.55 -99.68,-31.56 -22.03,-21.12 -33.04,-54.83 -33.04,-101.15l0 -238.53 55.86 0zm664.6 0l0 34.97 -67.44 7.95c6.13,7.72 11.69,17.94 16.57,30.43 4.88,12.48 7.27,26.56 7.27,42.34 0,35.64 -12.15,64.14 -36.55,85.38 -24.41,21.23 -57.9,31.9 -100.47,31.9 -10.9,0 -21.01,-0.91 -30.65,-2.62 -23.5,12.38 -35.2,28.05 -35.2,46.89 0,9.99 4.08,17.37 12.26,22.15 8.29,4.76 22.37,7.15 42.34,7.15l64.48 0c39.51,0 69.82,8.29 91.06,24.98 21.12,16.57 31.67,40.76 31.67,72.43 0,40.31 -16.11,71.07 -48.47,92.19 -32.47,21.23 -79.7,31.79 -141.8,31.79 -47.69,0 -84.47,-8.86 -110.24,-26.57 -25.88,-17.71 -38.83,-42.8 -38.83,-75.04 0,-22.14 7.16,-41.33 21.35,-57.56 14.19,-16.12 34.18,-27.14 59.83,-32.81 -9.31,-4.31 -17.14,-10.78 -23.38,-19.64 -6.36,-8.97 -9.54,-19.3 -9.54,-30.99 0,-13.4 3.63,-24.98 10.67,-34.98 7.15,-9.98 18.27,-19.64 33.6,-28.94 -18.84,-7.84 -34.17,-21.01 -46.09,-39.62 -11.81,-18.62 -17.82,-39.97 -17.82,-63.92 0,-39.85 12.03,-70.62 35.98,-92.19 23.95,-21.69 57.9,-32.47 101.84,-32.47 19.07,0 36.21,2.27 51.54,6.81l126.01 0zm-290.75 425.63c0,19.64 8.29,34.63 24.98,44.84 16.57,10.1 40.42,15.22 71.52,15.22 46.32,0 80.72,-6.93 102.97,-20.78 22.26,-13.74 33.5,-32.58 33.5,-56.19 0,-19.76 -6.13,-33.38 -18.39,-40.99 -12.15,-7.61 -35.09,-11.47 -68.8,-11.47l-66.19 0c-25.09,0 -44.62,6.02 -58.58,17.94 -13.97,11.92 -21.01,29.06 -21.01,51.43zm29.97 -309.03c0,25.54 7.15,44.84 21.57,57.9 14.42,13.06 34.52,19.64 60.29,19.64 53.93,0 80.83,-26.23 80.83,-78.57 0,-54.83 -27.25,-82.19 -81.85,-82.19 -26,0 -45.98,7.04 -59.95,21.01 -13.96,13.96 -20.89,34.74 -20.89,62.21z"/>
  <g>
   <path class="fil6" d="M12933.89 4699.48c-4.31,-6.47 -2.57,-15.23 3.9,-19.54 6.47,-4.31 15.23,-2.57 19.54,3.9l-23.44 15.64zm2596.7 3895.03l-2596.7 -3895.03 23.44 -15.64 2596.7 3895.03 -23.44 15.64zm80.82 -71.47l16.36 191.86 -170.81 -88.9 154.45 -102.96zm-57.38 55.83c4.31,6.47 2.57,15.23 -3.9,19.54 -6.47,4.31 -15.23,2.57 -19.54,-3.9l23.44 -15.64z"/>
  </g>
  <g>
   <path class="fil6" d="M11326.88 6273.11c-5.77,-5.2 -6.23,-14.13 -1.03,-19.9 5.2,-5.77 14.13,-6.23 19.9,-1.03l-18.87 20.93zm2881.97 2597.51l-2881.97 -2597.51 18.87 -20.93 2881.97 2597.51 -18.87 20.93zm60.7 -89.2l63.19 181.9 -187.46 -44.01 124.27 -137.89zm-41.82 68.27c5.77,5.2 6.23,14.13 1.03,19.9 -5.2,5.77 -14.13,6.23 -19.9,1.03l18.87 -20.93z"/>
  </g>
  <g>
   <path class="fil6" d="M11168.28 14024.48c-5.03,5.92 -13.94,6.64 -19.86,1.61 -5.92,-5.03 -6.64,-13.94 -1.61,-19.86l21.47 18.25zm3144.39 -3701.47l-3144.39 3701.47 -21.47 -18.25 3144.39 -3701.47 21.47 18.25zm-90.95 -58.06l179.97 -68.49 -38.5 188.68 -141.47 -120.18zm69.48 39.81c5.03,-5.92 13.94,-6.64 19.86,-1.61 5.92,5.03 6.64,13.94 1.61,19.86l-21.47 -18.25z"/>
  </g>
  <g>
   <path class="fil6" d="M8828.7 11229.51c-6.22,4.66 -15.07,3.4 -19.73,-2.82 -4.66,-6.22 -3.4,-15.07 2.82,-19.73l16.91 22.54zm2328.99 -1746.74l-2328.99 1746.74 -16.91 -22.54 2328.99 -1746.74 16.91 22.54zm-75.85 -76.73l190.66 -26.99 -79.29 175.48 -111.38 -148.49zm58.94 54.19c6.22,-4.66 15.07,-3.4 19.73,2.82 4.66,6.22 3.4,15.07 -2.82,19.73l-16.91 -22.54z"/>
  </g>
  <g>
   <path class="fil6" d="M9535.35 8026.52c-7.78,-0.06 -14.03,-6.43 -13.97,-14.21 0.06,-7.78 6.43,-14.03 14.21,-13.97l-0.24 28.18zm1301.96 11.42l-1301.96 -11.42 0.24 -28.18 1301.96 11.42 -0.24 28.18zm-13.7 -107.02l167.9 94.28 -169.53 91.33 1.63 -185.61zm13.94 78.85c7.78,0.06 14.03,6.43 13.97,14.21 -0.06,7.78 -6.43,14.03 -14.21,13.97l0.24 -28.18z"/>
  </g>
  <g>
   <path class="fil6" d="M16262.9 5559.46l1547.09 -255.85 4.59 27.8 -1547.09 255.85 -4.59 -27.8zm31.87 103.07l-181.6 -64.04 151.31 -119.09 30.28 183.14z"/>
  </g>
  <g>
   <path class="fil6" d="M16342.86 11496.28l2749.53 666.18 -6.63 27.38 -2749.53 -666.18 6.63 -27.38zm-10.95 107.33l-142.12 -129.93 185.83 -50.47 -43.71 180.4z"/>
  </g>
  <path class="fil0 str3" d="M18371.41 16474.36l9585.08 0c109.83,0 199.69,89.86 199.69,199.69l0 2595.96c0,109.83 -89.86,199.69 -199.69,199.69l-9585.08 0c-109.84,0 -199.69,-89.86 -199.69,-199.69l0 -2595.96c0,-109.83 89.85,-199.69 199.69,-199.69z"/>
  <path class="fil5" d="M19572.51 18937.76c-27.59,0 -49.42,9.22 -65.45,27.6 -15.98,18.43 -23.95,43.61 -23.95,75.61 0,32.93 7.69,58.35 23.12,76.25 15.39,17.97 37.4,26.95 65.99,26.95 17.49,0 37.51,-3.17 60,-9.45l0 25.65c-17.43,6.58 -38.92,9.86 -64.52,9.86 -37.04,0 -65.63,-11.21 -85.71,-33.7 -20.14,-22.49 -30.23,-54.43 -30.23,-95.81 0,-25.95 4.87,-48.66 14.56,-68.15 9.68,-19.49 23.66,-34.52 41.97,-45.03 18.26,-10.56 39.8,-15.85 64.58,-15.85 26.42,0 49.42,4.81 69.15,14.38l-12.39 25.13c-19.02,-8.99 -38.04,-13.45 -57.12,-13.45zm272.93 134.55c0,30.76 -7.75,54.77 -23.18,72.04 -15.5,17.25 -36.86,25.89 -64.16,25.89 -16.85,0 -31.82,-3.93 -44.91,-11.86 -13.04,-7.93 -23.13,-19.31 -30.23,-34.11 -7.17,-14.8 -10.69,-32.11 -10.69,-51.96 0,-30.75 7.7,-54.7 23.07,-71.85 15.33,-17.14 36.69,-25.72 63.93,-25.72 26.42,0 47.32,8.76 62.87,26.31 15.56,17.55 23.3,41.33 23.3,71.26zm-143.59 0c0,24.07 4.81,42.44 14.44,55.07 9.63,12.62 23.77,18.9 42.5,18.9 18.67,0 32.88,-6.28 42.56,-18.84 9.68,-12.57 14.5,-30.94 14.5,-55.13 0,-23.94 -4.81,-42.14 -14.5,-54.6 -9.68,-12.44 -24.01,-18.66 -42.91,-18.66 -18.73,0 -32.82,6.1 -42.32,18.37 -9.52,12.27 -14.27,30.58 -14.27,54.88zm281.37 97.93c-12.27,0 -23.48,-2.3 -33.64,-6.81 -10.09,-4.52 -18.67,-11.51 -25.54,-20.9l-2.05 0c1.35,10.97 2.05,21.43 2.05,31.28l0 77.44 -28.53 0 0 -272.99 23.18 0 3.99 25.72 1.35 0c7.34,-10.33 15.92,-17.79 25.66,-22.38 9.74,-4.57 20.9,-6.87 33.52,-6.87 25.01,0 44.32,8.58 57.94,25.66 13.57,17.08 20.38,41.04 20.38,71.91 0,31 -6.93,55.07 -20.73,72.21 -13.86,17.14 -32.99,25.72 -57.59,25.72zm-4.1 -171.18c-19.26,0 -33.23,5.34 -41.8,15.97 -8.63,10.68 -13.03,27.65 -13.27,50.95l0 6.34c0,26.48 4.4,45.44 13.27,56.83 8.81,11.45 23.01,17.14 42.5,17.14 16.26,0 29.06,-6.58 38.28,-19.79 9.22,-13.2 13.85,-31.34 13.85,-54.54 0,-23.48 -4.63,-41.51 -13.85,-54.07 -9.22,-12.56 -22.26,-18.84 -38.98,-18.84zm102.32 -20.79l30.59 0 41.33 107.43c9.04,24.54 14.68,42.26 16.84,53.13l1.36 0c1.52,-5.87 4.63,-15.85 9.39,-29.99 4.76,-14.15 20.32,-57.65 46.74,-130.57l30.58 0 -81.01 214.52c-8.05,21.25 -17.37,36.27 -28.12,45.14 -10.74,8.87 -23.89,13.33 -39.51,13.33 -8.7,0 -17.32,-1 -25.78,-2.88l0 -22.78c6.28,1.36 13.33,2.06 21.14,2.06 19.61,0 33.64,-11.03 41.97,-32.99l10.5 -26.89 -76.02 -189.51zm293.35 -3.52c8.34,0 15.85,0.71 22.49,2.06l-3.93 26.6c-7.81,-1.71 -14.68,-2.59 -20.67,-2.59 -15.21,0 -28.24,6.16 -39.1,18.55 -10.8,12.39 -16.2,27.83 -16.2,46.26l0 101.09 -28.59 0 0 -188.45 23.6 0 3.22 34.82 1.41 0c6.99,-12.27 15.39,-21.73 25.24,-28.36 9.86,-6.63 20.67,-9.98 32.53,-9.98zm86.35 191.97l-28.53 0 0 -188.45 28.53 0 0 188.45zm-30.93 -239.64c0,-6.51 1.59,-11.27 4.81,-14.32 3.22,-3.06 7.22,-4.58 12.03,-4.58 4.58,0 8.58,1.53 11.86,4.63 3.34,3.12 4.99,7.87 4.99,14.27 0,6.46 -1.65,11.27 -4.99,14.39 -3.28,3.17 -7.28,4.75 -11.86,4.75 -4.81,0 -8.81,-1.59 -12.03,-4.75 -3.22,-3.12 -4.81,-7.93 -4.81,-14.39zm245.8 51.19l0 18.08 -34.88 4.11c3.18,3.99 6.05,9.28 8.58,15.74 2.52,6.45 3.75,13.73 3.75,21.9 0,18.43 -6.28,33.17 -18.9,44.14 -12.63,10.98 -29.94,16.49 -51.96,16.49 -5.63,0 -10.86,-0.47 -15.85,-1.35 -12.15,6.4 -18.2,14.5 -18.2,24.24 0,5.17 2.12,8.99 6.34,11.45 4.28,2.47 11.56,3.69 21.9,3.69l33.35 0c20.43,0 36.1,4.29 47.08,12.92 10.92,8.57 16.38,21.08 16.38,37.45 0,20.84 -8.34,36.75 -25.07,47.67 -16.79,10.98 -41.22,16.44 -73.33,16.44 -24.65,0 -43.67,-4.58 -57,-13.74 -13.38,-9.16 -20.08,-22.14 -20.08,-38.81 0,-11.44 3.7,-21.37 11.04,-29.76 7.34,-8.33 17.66,-14.03 30.93,-16.96 -4.81,-2.23 -8.87,-5.57 -12.09,-10.15 -3.28,-4.63 -4.93,-9.98 -4.93,-16.03 0,-6.93 1.88,-12.92 5.52,-18.08 3.69,-5.16 9.45,-10.15 17.37,-14.97 -9.74,-4.05 -17.67,-10.86 -23.83,-20.49 -6.1,-9.64 -9.22,-20.67 -9.22,-33.06 0,-20.6 6.22,-36.51 18.61,-47.67 12.38,-11.21 29.93,-16.79 52.66,-16.79 9.86,0 18.72,1.18 26.65,3.52l65.17 0zm-150.35 220.09c0,10.15 4.28,17.9 12.91,23.19 8.58,5.22 20.91,7.86 36.99,7.86 23.94,0 41.74,-3.57 53.24,-10.73 11.51,-7.11 17.32,-16.85 17.32,-29.06 0,-10.21 -3.18,-17.26 -9.52,-21.19 -6.28,-3.93 -18.13,-5.93 -35.57,-5.93l-34.23 0c-12.97,0 -23.06,3.11 -30.28,9.28 -7.23,6.16 -10.86,15.03 -10.86,26.59zm15.5 -159.79c0,13.21 3.69,23.18 11.15,29.93 7.46,6.75 17.85,10.15 31.17,10.15 27.89,0 41.8,-13.56 41.8,-40.62 0,-28.36 -14.09,-42.5 -42.33,-42.5 -13.44,0 -23.77,3.63 -30.99,10.86 -7.22,7.22 -10.8,17.96 -10.8,32.17zm302.56 128.15l0 -121.93c0,-15.39 -3.45,-26.83 -10.5,-34.41 -6.99,-7.57 -17.96,-11.32 -32.88,-11.32 -19.84,0 -34.28,5.4 -43.44,16.14 -9.1,10.79 -13.68,28.47 -13.68,53.01l0 98.51 -28.53 0 0 -267.69 28.53 0 0 81.07c0,9.74 -0.47,17.84 -1.35,24.24l1.71 0c5.63,-9.05 13.62,-16.2 24,-21.43 10.39,-5.23 22.26,-7.81 35.52,-7.81 23.06,0 40.39,5.46 51.89,16.43 11.51,10.92 17.26,28.36 17.26,52.19l0 122.99 -28.54 0zm148.06 -20.08c5.05,0 9.92,-0.35 14.62,-1.12 4.7,-0.76 8.4,-1.52 11.15,-2.35l0 21.9c-3.11,1.47 -7.63,2.71 -13.68,3.7 -5.98,1 -11.44,1.47 -16.25,1.47 -36.46,0 -54.65,-19.2 -54.65,-57.65l0 -112.13 -27.01 0 0 -13.74 27.01 -11.92 12.03 -40.21 16.49 0 0 43.67 54.71 0 0 22.2 -54.71 0 0 110.89c0,11.39 2.71,20.08 8.11,26.19 5.4,6.04 12.79,9.1 22.19,9.1zm138.77 -76.49c0,-30.35 4.46,-58.77 13.33,-85.3 8.93,-26.48 21.72,-49.66 38.45,-69.62l27.89 0c-16.49,22.13 -28.94,46.43 -37.22,72.91 -8.34,26.48 -12.5,53.72 -12.5,81.72 0,27.47 4.22,54.36 12.74,80.59 8.51,26.3 20.72,50.25 36.63,71.92l-27.54 0c-16.84,-19.49 -29.7,-42.26 -38.51,-68.27 -8.81,-26.01 -13.27,-54.01 -13.27,-83.95zm195.73 100.09c-27.31,0 -48.43,-8.4 -63.41,-25.19 -14.97,-16.84 -22.43,-40.62 -22.43,-71.32 0,-31.59 7.58,-55.95 22.78,-73.15 15.21,-17.2 36.8,-25.84 64.93,-25.84 9.04,0 18.08,1 27.18,2.94 9.04,1.95 16.14,4.23 21.31,6.93l-8.81 24.25c-6.28,-2.53 -13.15,-4.58 -20.6,-6.29 -7.46,-1.64 -14.04,-2.46 -19.79,-2.46 -38.27,0 -57.41,24.41 -57.41,73.26 0,23.13 4.63,40.92 13.97,53.31 9.4,12.39 23.19,18.55 41.57,18.55 15.68,0 31.82,-3.4 48.31,-10.15l0 25.36c-12.62,6.52 -28.48,9.8 -47.61,9.8zm152.21 -100.09c0,30.17 -4.46,58.29 -13.33,84.3 -8.92,26.01 -21.72,48.66 -38.45,67.92l-27.53 0c15.91,-21.55 28.12,-45.5 36.63,-71.8 8.51,-26.3 12.74,-53.25 12.74,-80.71 0,-28.01 -4.17,-55.24 -12.51,-81.72 -8.28,-26.48 -20.72,-50.78 -37.22,-72.91l27.89 0c16.85,20.07 29.7,43.38 38.51,69.91 8.87,26.54 13.27,54.89 13.27,85.01zm288.12 96.57l-165.37 0 0 -24.6 66.28 -66.57c20.14,-20.43 33.46,-34.99 39.92,-43.73 6.4,-8.7 11.21,-17.2 14.44,-25.42 3.18,-8.28 4.82,-17.14 4.82,-26.72 0,-13.38 -4.11,-24 -12.21,-31.87 -8.17,-7.87 -19.49,-11.8 -33.94,-11.8 -10.44,0 -20.31,1.7 -29.64,5.16 -9.4,3.4 -19.79,9.68 -31.23,18.73l-15.15 -19.43c23.13,-19.2 48.37,-28.77 75.67,-28.77 23.65,0 42.14,6.04 55.59,18.14 13.44,12.09 20.14,28.35 20.14,48.78 0,15.91 -4.46,31.7 -13.45,47.32 -8.92,15.56 -25.65,35.28 -50.25,59.11l-55.06 53.9 0 1.35 129.45 0 0 26.42zm202.76 -126.04c0,43.5 -6.87,75.97 -20.55,97.4 -13.74,21.43 -34.7,32.17 -62.87,32.17 -27.12,0 -47.67,-10.98 -61.81,-32.94 -14.09,-21.96 -21.14,-54.19 -21.14,-96.63 0,-43.79 6.81,-76.25 20.49,-97.51 13.62,-21.19 34.46,-31.82 62.46,-31.82 27.3,0 48.03,11.1 62.17,33.23 14.15,22.14 21.25,54.19 21.25,96.1zm-137.49 -0.06c0,36.58 4.28,63.23 12.91,79.97 8.64,16.66 22.32,25 41.16,25 19.02,0 32.82,-8.45 41.39,-25.36 8.52,-16.96 12.8,-43.44 12.8,-79.61 0,-36.1 -4.28,-62.57 -12.8,-79.43 -8.57,-16.78 -22.37,-25.18 -41.39,-25.18 -18.84,0 -32.52,8.28 -41.16,24.89 -8.63,16.55 -12.91,43.14 -12.91,79.72zm337.55 126.1l-165.37 0 0 -24.6 66.28 -66.57c20.14,-20.43 33.46,-34.99 39.92,-43.73 6.4,-8.7 11.21,-17.2 14.44,-25.42 3.18,-8.28 4.82,-17.14 4.82,-26.72 0,-13.38 -4.11,-24 -12.21,-31.87 -8.17,-7.87 -19.49,-11.8 -33.94,-11.8 -10.44,0 -20.31,1.7 -29.64,5.16 -9.4,3.4 -19.79,9.68 -31.23,18.73l-15.15 -19.43c23.13,-19.2 48.37,-28.77 75.67,-28.77 23.65,0 42.14,6.04 55.59,18.14 13.44,12.09 20.14,28.35 20.14,48.78 0,15.91 -4.46,31.7 -13.45,47.32 -8.92,15.56 -25.65,35.28 -50.25,59.11l-55.06 53.9 0 1.35 129.45 0 0 26.42zm141.83 0l-27.83 0 0 -179.23c0,-14.91 0.47,-28.99 1.35,-42.26 -2.41,2.41 -5.1,4.93 -8.1,7.57 -2.94,2.65 -16.61,13.8 -40.92,33.59l-15.15 -19.67 66.57 -51.48 24.07 0 0 251.49zm228.41 -96.51c4.93,-6.99 12.45,-16.14 22.54,-27.48l60.88 -64.46 33.94 0 -76.38 80.32 81.72 108.13 -34.58 0 -66.58 -89.11 -21.55 18.55 0 70.56 -28.18 0 0 -267.69 28.18 0 0 141.95c0,6.28 -0.47,16.03 -1.35,29.23l1.35 0zm272.57 96.51l-5.69 -26.83 -1.41 0c-9.4,11.8 -18.73,19.84 -28.07,24.07 -9.39,4.16 -21.01,6.28 -34.99,6.28 -18.72,0 -33.34,-4.81 -43.97,-14.45 -10.56,-9.68 -15.91,-23.36 -15.91,-41.21 0,-38.1 30.46,-58.06 91.29,-59.88l31.99 -1.06 0 -11.68c0,-14.74 -3.17,-25.66 -9.51,-32.7 -6.4,-7.05 -16.55,-10.57 -30.53,-10.57 -15.73,0 -33.46,4.82 -53.3,14.45l-8.76 -21.84c9.28,-5.05 19.44,-9.05 30.47,-11.92 11.09,-2.88 22.2,-4.28 33.29,-4.28 22.49,0 39.1,4.99 49.95,14.97 10.86,9.98 16.26,25.95 16.26,47.97l0 128.68 -21.14 0zm-64.51 -20.08c17.78,0 31.76,-4.87 41.85,-14.62 10.15,-9.74 15.27,-23.36 15.27,-40.92l0 -17.02 -28.6 1.23c-22.65,0.77 -39.04,4.29 -49.07,10.57 -10.04,6.22 -15.03,15.97 -15.03,29.11 0,10.33 3.11,18.2 9.39,23.54 6.23,5.4 14.98,8.1 26.19,8.1zm272.86 -5.16l-1.53 0c-13.21,19.19 -32.94,28.77 -59.18,28.77 -24.65,0 -43.85,-8.46 -57.59,-25.3 -13.68,-16.85 -20.55,-40.87 -20.55,-71.92 0,-31.11 6.87,-55.24 20.67,-72.44 13.74,-17.2 32.94,-25.84 57.47,-25.84 25.54,0 45.15,9.28 58.83,27.89l2.23 0 -1.17 -13.62 -0.71 -13.21 0 -76.78 28.54 0 0 267.69 -23.19 0 -3.81 -25.24zm-57.12 4.81c19.49,0 33.64,-5.28 42.44,-15.92 8.75,-10.62 13.15,-27.71 13.15,-51.36l0 -5.99c0,-26.71 -4.46,-45.79 -13.33,-57.18 -8.92,-11.44 -23.12,-17.14 -42.61,-17.14 -16.73,0 -29.53,6.52 -38.46,19.55 -8.86,12.98 -13.32,31.35 -13.32,55.12 0,24.07 4.4,42.21 13.27,54.49 8.81,12.27 21.78,18.43 38.86,18.43zm173.18 20.43l-28.53 0 0 -188.45 28.53 0 0 188.45zm-30.93 -239.64c0,-6.51 1.59,-11.27 4.81,-14.32 3.22,-3.06 7.22,-4.58 12.03,-4.58 4.58,0 8.58,1.53 11.86,4.63 3.34,3.12 4.99,7.87 4.99,14.27 0,6.46 -1.65,11.27 -4.99,14.39 -3.28,3.17 -7.28,4.75 -11.86,4.75 -4.81,0 -8.81,-1.59 -12.03,-4.75 -3.22,-3.12 -4.81,-7.93 -4.81,-14.39zm177.46 47.67c8.34,0 15.85,0.71 22.49,2.06l-3.93 26.6c-7.81,-1.71 -14.68,-2.59 -20.67,-2.59 -15.21,0 -28.24,6.16 -39.1,18.55 -10.8,12.39 -16.2,27.83 -16.2,46.26l0 101.09 -28.59 0 0 -188.45 23.6 0 3.22 34.82 1.41 0c6.99,-12.27 15.39,-21.73 25.24,-28.36 9.86,-6.63 20.67,-9.98 32.53,-9.98zm177.86 191.97l-28.53 0 0 -188.45 28.53 0 0 188.45zm-30.93 -239.64c0,-6.51 1.59,-11.27 4.81,-14.32 3.22,-3.06 7.22,-4.58 12.03,-4.58 4.58,0 8.58,1.53 11.86,4.63 3.34,3.12 4.99,7.87 4.99,14.27 0,6.46 -1.65,11.27 -4.99,14.39 -3.28,3.17 -7.28,4.75 -11.86,4.75 -4.81,0 -8.81,-1.59 -12.03,-4.75 -3.22,-3.12 -4.81,-7.93 -4.81,-14.39zm120.04 239.64l-28.53 0 0 -267.69 28.53 0 0 267.69zm88.76 -96.51c4.93,-6.99 12.45,-16.14 22.54,-27.48l60.88 -64.46 33.94 0 -76.38 80.32 81.72 108.13 -34.58 0 -66.58 -89.11 -21.55 18.55 0 70.56 -28.18 0 0 -267.69 28.18 0 0 141.95c0,6.28 -0.47,16.03 -1.35,29.23l1.35 0zm185.21 96.51l-28.53 0 0 -188.45 28.53 0 0 188.45zm-30.93 -239.64c0,-6.51 1.59,-11.27 4.81,-14.32 3.22,-3.06 7.22,-4.58 12.03,-4.58 4.58,0 8.58,1.53 11.86,4.63 3.34,3.12 4.99,7.87 4.99,14.27 0,6.46 -1.65,11.27 -4.99,14.39 -3.28,3.17 -7.28,4.75 -11.86,4.75 -4.81,0 -8.81,-1.59 -12.03,-4.75 -3.22,-3.12 -4.81,-7.93 -4.81,-14.39zm331.68 239.64l0 -122.64c0,-14.97 -3.18,-26.24 -9.64,-33.75 -6.4,-7.52 -16.37,-11.27 -29.87,-11.27 -17.79,0 -30.88,5.1 -39.4,15.32 -8.45,10.21 -12.74,25.89 -12.74,47.09l0 105.26 -28.53 0 0 -122.64c0,-14.97 -3.22,-26.24 -9.63,-33.75 -6.4,-7.52 -16.44,-11.27 -30.12,-11.27 -17.84,0 -30.93,5.34 -39.27,16.08 -8.28,10.68 -12.45,28.3 -12.45,52.72l0 98.86 -28.53 0 0 -188.45 23.18 0 4.64 25.72 1.41 0c5.34,-9.17 12.97,-16.32 22.77,-21.49 9.8,-5.17 20.79,-7.76 32.94,-7.76 29.4,0 48.72,10.69 57.76,32l1.36 0c5.63,-9.86 13.79,-17.67 24.42,-23.42 10.68,-5.69 22.83,-8.58 36.45,-8.58 21.31,0 37.27,5.46 47.91,16.44 10.56,10.91 15.91,28.47 15.91,52.54l0 122.99 -28.59 0zm167.07 3.52c-27.89,0 -49.84,-8.52 -65.93,-25.48 -16.14,-16.96 -24.19,-40.57 -24.19,-70.74 0,-30.41 7.46,-54.54 22.43,-72.45 14.98,-17.9 35.06,-26.83 60.3,-26.83 23.6,0 42.32,7.76 56.06,23.31 13.74,15.56 20.67,36.04 20.67,61.46l0 18.08 -129.86 0c0.59,22.13 6.16,38.92 16.73,50.42 10.62,11.45 25.53,17.2 44.85,17.2 20.25,0 40.33,-4.22 60.17,-12.74l0 25.48c-10.09,4.4 -19.66,7.52 -28.65,9.46 -8.99,1.88 -19.84,2.82 -32.58,2.82zm-7.75 -171.54c-15.15,0 -27.19,4.93 -36.16,14.8 -9.05,9.8 -14.33,23.42 -15.92,40.86l98.51 0c0,-17.96 -3.98,-31.76 -12.03,-41.33 -8.04,-9.57 -19.49,-14.33 -34.4,-14.33zm254.77 168.02l0 -121.93c0,-15.39 -3.45,-26.83 -10.5,-34.41 -6.99,-7.57 -17.96,-11.32 -32.88,-11.32 -19.72,0 -34.17,5.34 -43.32,15.97 -9.22,10.68 -13.8,28.3 -13.8,52.84l0 98.86 -28.53 0 0 -188.45 23.18 0 4.64 25.72 1.41 0c5.87,-9.28 14.03,-16.5 24.6,-21.61 10.56,-5.11 22.31,-7.64 35.28,-7.64 22.72,0 39.81,5.46 51.25,16.44 11.51,10.91 17.2,28.47 17.2,52.54l0 122.99 -28.54 0zm233.42 -267.69l24.24 0 0 352.93 -24.24 0 0 -352.93zm346.41 267.69l-85.36 -222.96 -1.35 0c1.58,17.67 2.41,38.69 2.41,62.99l0 159.97 -27.01 0 0 -251.49 44.03 0 79.67 207.46 1.35 0 80.36 -207.46 43.68 0 0 251.49 -29.24 0 0 -162.03c0,-18.61 0.83,-38.8 2.42,-60.59l-1.36 0 -86.06 222.61 -23.54 0zm206.7 0l0 -251.49 29.23 0 0 251.49 -29.23 0zm175.6 0l-29.24 0 0 -225.43 -79.6 0 0 -26.06 188.38 0 0 26.06 -79.54 0 0 225.43zm208.98 0l0 -251.49 29.23 0 0 225.07 110.9 0 0 26.42 -140.13 0zm207.05 0l-28.53 0 0 -188.45 28.53 0 0 188.45zm-30.93 -239.64c0,-6.51 1.59,-11.27 4.81,-14.32 3.22,-3.06 7.22,-4.58 12.03,-4.58 4.58,0 8.58,1.53 11.86,4.63 3.34,3.12 4.99,7.87 4.99,14.27 0,6.46 -1.65,11.27 -4.99,14.39 -3.28,3.17 -7.28,4.75 -11.86,4.75 -4.81,0 -8.81,-1.59 -12.03,-4.75 -3.22,-3.12 -4.81,-7.93 -4.81,-14.39zm166.84 243.16c-27.31,0 -48.43,-8.4 -63.41,-25.19 -14.97,-16.84 -22.43,-40.62 -22.43,-71.32 0,-31.59 7.58,-55.95 22.78,-73.15 15.21,-17.2 36.8,-25.84 64.93,-25.84 9.04,0 18.08,1 27.18,2.94 9.04,1.95 16.14,4.23 21.31,6.93l-8.81 24.25c-6.28,-2.53 -13.15,-4.58 -20.6,-6.29 -7.46,-1.64 -14.04,-2.46 -19.79,-2.46 -38.27,0 -57.41,24.41 -57.41,73.26 0,23.13 4.63,40.92 13.97,53.31 9.4,12.39 23.19,18.55 41.57,18.55 15.68,0 31.82,-3.4 48.31,-10.15l0 25.36c-12.62,6.52 -28.48,9.8 -47.61,9.8zm171.94 0c-27.89,0 -49.84,-8.52 -65.93,-25.48 -16.14,-16.96 -24.19,-40.57 -24.19,-70.74 0,-30.41 7.46,-54.54 22.43,-72.45 14.98,-17.9 35.06,-26.83 60.3,-26.83 23.6,0 42.32,7.76 56.06,23.31 13.74,15.56 20.67,36.04 20.67,61.46l0 18.08 -129.86 0c0.59,22.13 6.16,38.92 16.73,50.42 10.62,11.45 25.53,17.2 44.85,17.2 20.25,0 40.33,-4.22 60.17,-12.74l0 25.48c-10.09,4.4 -19.66,7.52 -28.65,9.46 -8.99,1.88 -19.84,2.82 -32.58,2.82zm-7.75 -171.54c-15.15,0 -27.19,4.93 -36.16,14.8 -9.05,9.8 -14.33,23.42 -15.92,40.86l98.51 0c0,-17.96 -3.98,-31.76 -12.03,-41.33 -8.04,-9.57 -19.49,-14.33 -34.4,-14.33zm254.77 168.02l0 -121.93c0,-15.39 -3.45,-26.83 -10.5,-34.41 -6.99,-7.57 -17.96,-11.32 -32.88,-11.32 -19.72,0 -34.17,5.34 -43.32,15.97 -9.22,10.68 -13.8,28.3 -13.8,52.84l0 98.86 -28.53 0 0 -188.45 23.18 0 4.64 25.72 1.41 0c5.87,-9.28 14.03,-16.5 24.6,-21.61 10.56,-5.11 22.31,-7.64 35.28,-7.64 22.72,0 39.81,5.46 51.25,16.44 11.51,10.91 17.2,28.47 17.2,52.54l0 122.99 -28.54 0zm208.77 -51.37c0,17.55 -6.58,31.12 -19.61,40.63 -13.09,9.52 -31.41,14.27 -55.06,14.27 -24.95,0 -44.44,-3.93 -58.47,-11.86l0 -26.54c9.1,4.58 18.78,8.23 29.17,10.86 10.39,2.65 20.37,3.93 29.99,3.93 14.92,0 26.36,-2.41 34.41,-7.16 8.04,-4.75 12.03,-11.98 12.03,-21.73 0,-7.34 -3.17,-13.62 -9.57,-18.84 -6.34,-5.22 -18.73,-11.39 -37.22,-18.49 -17.55,-6.58 -29.99,-12.27 -37.39,-17.14 -7.4,-4.87 -12.92,-10.39 -16.49,-16.61 -3.64,-6.16 -5.4,-13.56 -5.4,-22.19 0,-15.39 6.22,-27.48 18.72,-36.4 12.51,-8.87 29.64,-13.33 51.43,-13.33 20.25,0 40.1,4.11 59.47,12.39l-10.15 23.24c-18.91,-7.81 -36.04,-11.68 -51.37,-11.68 -13.56,0 -23.77,2.12 -30.64,6.34 -6.87,4.29 -10.33,10.1 -10.33,17.55 0,5.05 1.29,9.34 3.87,12.92 2.59,3.52 6.75,6.93 12.5,10.15 5.7,3.18 16.73,7.87 33,13.92 22.37,8.16 37.45,16.37 45.32,24.59 7.87,8.28 11.8,18.67 11.8,31.17zm126.04 54.89c-27.89,0 -49.84,-8.52 -65.93,-25.48 -16.14,-16.96 -24.19,-40.57 -24.19,-70.74 0,-30.41 7.46,-54.54 22.43,-72.45 14.98,-17.9 35.06,-26.83 60.3,-26.83 23.6,0 42.32,7.76 56.06,23.31 13.74,15.56 20.67,36.04 20.67,61.46l0 18.08 -129.86 0c0.59,22.13 6.16,38.92 16.73,50.42 10.62,11.45 25.53,17.2 44.85,17.2 20.25,0 40.33,-4.22 60.17,-12.74l0 25.48c-10.09,4.4 -19.66,7.52 -28.65,9.46 -8.99,1.88 -19.84,2.82 -32.58,2.82zm-7.75 -171.54c-15.15,0 -27.19,4.93 -36.16,14.8 -9.05,9.8 -14.33,23.42 -15.92,40.86l98.51 0c0,-17.96 -3.98,-31.76 -12.03,-41.33 -8.04,-9.57 -19.49,-14.33 -34.4,-14.33z"/>
  <path class="fil5" d="M20179.09 16963.47c0,41.43 -7.32,76.19 -22.03,104.22 -14.72,28.02 -36.24,48.48 -64.68,61.47l84.82 94.59 -95.59 0 -64.51 -78.9 -5.59 0c-53.92,0 -95.34,-15.62 -124.27,-46.93 -28.93,-31.31 -43.31,-76.27 -43.31,-134.87 0,-58.6 14.47,-103.39 43.47,-134.29 28.93,-30.91 70.52,-46.36 124.6,-46.36 54.09,0 95.5,15.54 124.11,46.68 28.69,31.15 42.98,75.94 42.98,134.38zm-256.92 0c0,39.37 7.48,68.95 22.36,88.92 14.96,19.89 37.31,29.83 66.99,29.83 59.59,0 89.33,-39.61 89.33,-118.76 0,-79.31 -29.58,-118.92 -88.84,-118.92 -29.75,0 -52.11,10.02 -67.23,29.99 -15.05,19.98 -22.6,49.64 -22.6,88.93zm514.65 176.46l-9.85 -34.44 -3.86 0c-7.89,12.57 -19.07,22.28 -33.45,29.09 -14.47,6.82 -30.91,10.27 -49.31,10.27 -31.64,0 -55.48,-8.47 -71.51,-25.4 -16.03,-16.92 -24.08,-41.34 -24.08,-73.15l0 -175.63 73.48 0 0 157.22c0,19.4 3.45,34.03 10.36,43.73 6.82,9.69 17.83,14.55 32.87,14.55 20.55,0 35.42,-6.91 44.55,-20.64 9.12,-13.72 13.72,-36.4 13.72,-68.21l0 -126.64 73.4 0 0 269.24 -56.3 0zm130.36 -338.94c0,-23.91 13.31,-35.83 39.94,-35.83 26.63,0 39.95,11.92 39.95,35.83 0,11.42 -3.28,20.3 -9.94,26.63 -6.66,6.33 -16.68,9.54 -30,9.54 -26.63,0 -39.94,-12.08 -39.94,-36.16zm76.51 338.94l-73.39 0 0 -269.24 73.39 0 0 269.24zm186.32 4.93c-83.75,0 -125.57,-46.03 -125.57,-138 0,-45.78 11.33,-80.7 34.11,-104.87 22.84,-24.16 55.47,-36.24 97.97,-36.24 31.14,0 59.09,6.08 83.83,18.24l-21.7 56.79c-11.59,-4.6 -22.28,-8.47 -32.22,-11.42 -9.94,-2.96 -19.89,-4.44 -29.83,-4.44 -38.22,0 -57.29,27.13 -57.29,81.37 0,52.6 19.07,78.9 57.29,78.9 14.05,0 27.12,-1.9 39.2,-5.67 12,-3.78 24.08,-9.69 36.08,-17.67l0 62.95c-11.84,7.57 -23.83,12.83 -36,15.71 -12.08,2.88 -27.37,4.35 -45.86,4.35zm214.84 -151.39l32.05 -40.93 75.29 -81.85 82.84 0 -106.84 116.79 113.33 152.45 -84.73 0 -77.51 -109.14 -31.56 25.31 0 83.83 -73.39 0 0 -374.78 73.39 0 0 167.17 -3.86 61.14 0.99 0zm518.68 -148.43c-28.11,0 -49.8,10.52 -65.26,31.65 -15.37,21.12 -23.09,50.54 -23.09,88.26 0,78.49 29.42,117.78 88.35,117.78 24.65,0 54.65,-6.16 89.75,-18.57l0 62.62c-28.86,12.08 -61.15,18.08 -96.74,18.08 -51.2,0 -90.32,-15.54 -117.45,-46.6 -27.12,-31.07 -40.68,-75.7 -40.68,-133.8 0,-36.57 6.66,-68.63 19.97,-96.16 13.32,-27.54 32.46,-48.65 57.37,-63.37 24.98,-14.71 54.24,-22.03 87.77,-22.03 34.19,0 68.46,8.31 102.98,24.82l-24.08 60.66c-13.15,-6.24 -26.38,-11.67 -39.7,-16.35 -13.31,-4.68 -26.38,-6.99 -39.2,-6.99zm407.32 294.89l-73.48 0 0 -157.23c0,-38.87 -14.38,-58.27 -43.31,-58.27 -20.46,0 -35.34,6.99 -44.46,20.96 -9.13,13.97 -13.73,36.57 -13.73,67.88l0 126.65 -73.39 0 0 -374.78 73.39 0 0 76.44c0,5.91 -0.57,19.89 -1.64,41.91l-1.73 21.7 3.86 0c16.35,-26.3 42.32,-39.45 77.99,-39.45 31.56,0 55.56,8.47 71.92,25.47 16.35,17.01 24.57,41.43 24.57,73.24l0 175.47zm246.65 0l-14.22 -36.57 -1.89 0c-12.41,15.62 -25.15,26.47 -38.22,32.46 -13.07,6 -30.08,9.05 -51.12,9.05 -25.89,0 -46.19,-7.4 -61.06,-22.2 -14.88,-14.79 -22.28,-35.83 -22.28,-63.11 0,-28.61 10.03,-49.72 30,-63.29 19.97,-13.56 50.13,-21.12 90.4,-22.51l46.69 -1.48 0 -11.84c0,-27.28 -13.97,-40.93 -41.91,-40.93 -21.46,0 -46.77,6.49 -75.78,19.48l-24.32 -49.47c30.98,-16.19 65.34,-24.25 103.06,-24.25 36.08,0 63.78,7.9 83.01,23.59 19.31,15.7 28.93,39.61 28.93,71.75l0 179.33 -51.29 0zm-21.7 -124.76l-28.36 0.98c-21.37,0.66 -37.31,4.44 -47.75,11.59 -10.44,7.07 -15.62,17.83 -15.62,32.3 0,20.71 11.91,31.06 35.66,31.06 17.01,0 30.57,-4.92 40.77,-14.71 10.19,-9.77 15.29,-22.84 15.29,-39.04l0 -22.19zm396.96 124.76l-73.48 0 0 -157.23c0,-19.39 -3.45,-34.03 -10.35,-43.72 -6.9,-9.69 -17.83,-14.55 -32.96,-14.55 -20.46,0 -35.34,6.82 -44.46,20.55 -9.13,13.73 -13.73,36.49 -13.73,68.29l0 126.65 -73.39 0 0 -269.24 56.04 0 9.86 34.52 4.11 0c8.22,-12.99 19.48,-22.85 33.86,-29.5 14.3,-6.66 30.66,-9.94 48.9,-9.94 31.31,0 55.06,8.47 71.26,25.39 16.18,16.93 24.32,41.35 24.32,73.32l0 175.47zm310.02 -269.24l0 37.47 -42.16 10.85c7.73,12 11.58,25.47 11.58,40.44 0,28.85 -10.1,51.36 -30.24,67.55 -20.13,16.1 -48.16,24.16 -83.91,24.16l-13.23 -0.74 -10.85 -1.15c-7.56,5.75 -11.34,12.16 -11.34,19.23 0,10.6 13.48,15.87 40.44,15.87l45.78 0c29.5,0 52.03,6.32 67.55,18.98 15.46,12.74 23.26,31.31 23.26,55.8 0,31.48 -13.15,55.8 -39.37,73.15 -26.3,17.34 -63.94,25.97 -113.09,25.97 -37.55,0 -66.24,-6.49 -86.05,-19.56 -19.89,-13.07 -29.75,-31.39 -29.75,-54.98 0,-16.18 5.01,-29.74 15.13,-40.6 10.1,-10.93 24.98,-18.74 44.54,-23.34 -7.56,-3.21 -14.14,-8.47 -19.72,-15.78 -5.59,-7.32 -8.47,-15.05 -8.47,-23.26 0,-10.27 3.04,-18.82 8.96,-25.64 5.92,-6.82 14.55,-13.48 25.73,-20.05 -14.14,-6.17 -25.32,-15.95 -33.54,-29.42 -8.3,-13.48 -12.41,-29.34 -12.41,-47.68 0,-29.33 9.54,-52.1 28.61,-68.12 19.15,-16.04 46.43,-24.08 81.93,-24.08 7.49,0 16.44,0.66 26.8,1.97 10.35,1.32 17.01,2.31 19.89,2.97l93.94 0zm-207.86 307.29c0,10.11 4.85,18.08 14.55,23.83 9.78,5.76 23.34,8.64 40.85,8.64 26.3,0 46.93,-3.62 61.88,-10.85 14.97,-7.15 22.45,-17.01 22.45,-29.5 0,-10.11 -4.44,-17.09 -13.24,-20.96 -8.88,-3.86 -22.51,-5.75 -41.01,-5.75l-38.05 0c-13.48,0 -24.74,3.21 -33.78,9.54 -9.13,6.32 -13.65,14.63 -13.65,25.06zm26.71 -219.19c0,14.63 3.37,26.22 10.03,34.77 6.65,8.47 16.84,12.74 30.48,12.74 13.81,0 23.92,-4.27 30.33,-12.74 6.41,-8.55 9.62,-20.14 9.62,-34.77 0,-32.47 -13.32,-48.65 -39.95,-48.65 -27.04,0 -40.52,16.18 -40.52,48.65zm336.98 -40.77c-15.62,0 -27.79,4.93 -36.66,14.8 -8.79,9.85 -13.89,23.83 -15.2,41.91l103.14 0c-0.33,-18.08 -5.01,-32.06 -14.22,-41.91 -9.13,-9.86 -21.54,-14.8 -37.06,-14.8zm10.35 226.84c-43.39,0 -77.26,-12 -101.66,-35.91 -24.41,-23.92 -36.57,-57.78 -36.57,-101.58 0,-45.13 11.25,-79.98 33.78,-104.63 22.59,-24.66 53.75,-36.98 93.6,-36.98 38.06,0 67.64,10.84 88.85,32.46 21.2,21.7 31.8,51.53 31.8,89.75l0 35.58 -173.66 0c0.82,20.88 6.99,37.23 18.49,48.98 11.59,11.75 27.87,17.59 48.73,17.59 16.19,0 31.56,-1.73 46.03,-5.1 14.39,-3.36 29.5,-8.71 45.29,-16.1l0 56.87c-12.91,6.41 -26.63,11.26 -41.27,14.39 -14.55,3.12 -32.38,4.68 -53.42,4.68zm439.13 -4.93l-74.62 0 0 -289.96 -95.58 0 0 -62.13 265.79 0 0 62.13 -95.58 0 0 289.96zm202.58 -135.12c0,26.63 4.36,46.77 13.07,60.42 8.8,13.64 23.01,20.46 42.74,20.46 19.56,0 33.61,-6.74 42.24,-20.3 8.55,-13.56 12.82,-33.78 12.82,-60.58 0,-26.63 -4.27,-46.6 -12.99,-59.91 -8.63,-13.32 -22.84,-19.98 -42.57,-19.98 -19.56,0 -33.7,6.66 -42.32,19.89 -8.72,13.24 -12.99,33.21 -12.99,60zm185.99 0.17c0,43.8 -11.5,78.08 -34.6,102.81 -23.09,24.74 -55.31,37.07 -96.57,37.07 -25.81,0 -48.57,-5.67 -68.38,-17.01 -19.72,-11.26 -34.85,-27.54 -45.45,-48.73 -10.6,-21.21 -15.86,-45.95 -15.86,-74.13 0,-44.05 11.42,-78.25 34.35,-102.65 23.01,-24.41 55.23,-36.57 96.82,-36.57 25.81,0 48.57,5.58 68.38,16.84 19.72,11.26 34.85,27.37 45.45,48.41 10.59,21.04 15.86,45.69 15.86,73.96zm119.33 -0.17c0,26.63 4.36,46.77 13.07,60.42 8.8,13.64 23.01,20.46 42.74,20.46 19.56,0 33.61,-6.74 42.24,-20.3 8.55,-13.56 12.82,-33.78 12.82,-60.58 0,-26.63 -4.27,-46.6 -12.99,-59.91 -8.63,-13.32 -22.84,-19.98 -42.57,-19.98 -19.56,0 -33.7,6.66 -42.32,19.89 -8.72,13.24 -12.99,33.21 -12.99,60zm185.99 0.17c0,43.8 -11.5,78.08 -34.6,102.81 -23.09,24.74 -55.31,37.07 -96.57,37.07 -25.81,0 -48.57,-5.67 -68.38,-17.01 -19.72,-11.26 -34.85,-27.54 -45.45,-48.73 -10.6,-21.21 -15.86,-45.95 -15.86,-74.13 0,-44.05 11.42,-78.25 34.35,-102.65 23.01,-24.41 55.23,-36.57 96.82,-36.57 25.81,0 48.57,5.58 68.38,16.84 19.72,11.26 34.85,27.37 45.45,48.41 10.59,21.04 15.86,45.69 15.86,73.96zm134.21 134.95l-73.39 0 0 -374.78 73.39 0 0 374.78zm426.56 0l-25.56 -83.83 -128.38 0 -25.47 83.83 -80.46 0 124.27 -353.57 91.23 0 124.76 353.57 -80.37 0zm-43.39 -146.46c-23.59,-75.93 -36.9,-118.92 -39.87,-128.87 -2.96,-9.94 -5.09,-17.83 -6.32,-23.58 -5.34,20.55 -20.55,71.34 -45.54,152.45l91.73 0zm247.54 151.39c-31.56,0 -56.46,-12.25 -74.54,-36.82 -18.08,-24.57 -27.04,-58.6 -27.04,-102.16 0,-44.13 9.12,-78.49 27.53,-103.14 18.41,-24.66 43.72,-36.98 76.02,-36.98 33.87,0 59.75,13.15 77.59,39.53l2.38 0c-3.69,-20.14 -5.5,-38.05 -5.5,-53.84l0 -86.3 73.64 0 0 374.78 -56.29 0 -14.22 -34.77 -3.13 0c-16.76,26.47 -42.16,39.7 -76.43,39.7zm25.8 -58.68c18.82,0 32.55,-5.43 41.35,-16.35 8.71,-10.93 13.48,-29.42 14.3,-55.64l0 -7.89c0,-28.93 -4.43,-49.56 -13.4,-62.13 -8.88,-12.5 -23.33,-18.74 -43.47,-18.74 -16.35,0 -29.09,6.9 -38.22,20.79 -9.04,13.89 -13.56,34.11 -13.56,60.58 0,26.47 4.6,46.27 13.73,59.51 9.12,13.23 22.27,19.89 39.28,19.89zm371.98 53.75l-14.22 -36.57 -1.89 0c-12.41,15.62 -25.15,26.47 -38.22,32.46 -13.07,6 -30.08,9.05 -51.12,9.05 -25.89,0 -46.19,-7.4 -61.06,-22.2 -14.88,-14.79 -22.28,-35.83 -22.28,-63.11 0,-28.61 10.03,-49.72 30,-63.29 19.97,-13.56 50.13,-21.12 90.4,-22.51l46.69 -1.48 0 -11.84c0,-27.28 -13.97,-40.93 -41.91,-40.93 -21.46,0 -46.77,6.49 -75.78,19.48l-24.32 -49.47c30.98,-16.19 65.34,-24.25 103.06,-24.25 36.08,0 63.78,7.9 83.01,23.59 19.31,15.7 28.93,39.61 28.93,71.75l0 179.33 -51.29 0zm-21.7 -124.76l-28.36 0.98c-21.37,0.66 -37.31,4.44 -47.75,11.59 -10.44,7.07 -15.62,17.83 -15.62,32.3 0,20.71 11.91,31.06 35.66,31.06 17.01,0 30.57,-4.92 40.77,-14.71 10.19,-9.77 15.29,-22.84 15.29,-39.04l0 -22.19zm296.45 129.69c-31.64,0 -56.46,-11.51 -74.46,-34.44l-3.77 0c2.55,22.44 3.77,35.42 3.77,38.96l0 108.89 -73.39 0 0 -387.59 59.67 0 10.35 35.01 3.36 0c17.26,-26.63 42.65,-39.94 76.44,-39.94 31.72,0 56.62,12.24 74.62,36.81 17.99,24.58 26.96,58.69 26.96,102.41 0,28.69 -4.19,53.67 -12.66,74.87 -8.39,21.21 -20.38,37.31 -35.99,48.4 -15.54,11.09 -33.87,16.6 -54.9,16.6zm-21.7 -220.43c-18.08,0 -31.4,5.59 -39.7,16.68 -8.39,11.17 -12.74,29.58 -13.07,55.31l0 7.89c0,28.93 4.36,49.56 12.91,62.13 8.63,12.49 22.19,18.74 40.85,18.74 32.96,0 49.39,-27.13 49.39,-81.36 0,-26.47 -4.03,-46.28 -12.16,-59.51 -8.14,-13.23 -20.8,-19.89 -38.22,-19.89zm299.24 161.75c12.9,0 28.27,-2.8 46.27,-8.47l0 54.81c-18.32,8.22 -40.77,12.33 -67.4,12.33 -29.42,0 -50.79,-7.4 -64.18,-22.28 -13.4,-14.88 -20.14,-37.14 -20.14,-66.82l0 -129.86 -35.1 0 0 -31.15 40.44 -24.57 21.21 -56.79 46.93 0 0 57.29 75.36 0 0 55.22 -75.36 0 0 129.69c0,10.44 2.96,18.17 8.8,23.1 5.83,5.01 13.56,7.48 23.17,7.48zm212.21 -168.16c-15.62,0 -27.79,4.93 -36.66,14.8 -8.79,9.85 -13.89,23.83 -15.2,41.91l103.14 0c-0.33,-18.08 -5.01,-32.06 -14.22,-41.91 -9.13,-9.86 -21.54,-14.8 -37.06,-14.8zm10.35 226.84c-43.39,0 -77.26,-12 -101.66,-35.91 -24.41,-23.92 -36.57,-57.78 -36.57,-101.58 0,-45.13 11.25,-79.98 33.78,-104.63 22.59,-24.66 53.75,-36.98 93.6,-36.98 38.06,0 67.64,10.84 88.85,32.46 21.2,21.7 31.8,51.53 31.8,89.75l0 35.58 -173.66 0c0.82,20.88 6.99,37.23 18.49,48.98 11.59,11.75 27.87,17.59 48.73,17.59 16.19,0 31.56,-1.73 46.03,-5.1 14.39,-3.36 29.5,-8.71 45.29,-16.1l0 56.87c-12.91,6.41 -26.63,11.26 -41.27,14.39 -14.55,3.12 -32.38,4.68 -53.42,4.68zm319.63 -279.11c9.94,0 18.24,0.74 24.81,2.14l-5.5 68.87c-6,-1.57 -13.15,-2.39 -21.7,-2.39 -23.42,0 -41.68,6 -54.73,18.08 -13.07,12 -19.65,28.85 -19.65,50.54l0 136.93 -73.39 0 0 -269.24 55.63 0 10.77 45.36 3.61 0c8.38,-15.04 19.64,-27.2 33.86,-36.48 14.14,-9.21 29.59,-13.81 46.28,-13.81z"/>
  <path class="fil5" d="M20024.76 17511.77l85.24 0c40.01,0 69.03,5.99 86.85,17.96 17.89,11.98 26.84,30.93 26.84,56.78 0,17.89 -4.92,32.69 -14.93,44.31 -10,11.62 -24.52,19.16 -43.68,22.61l0 2.04c45.86,7.83 68.75,31.92 68.75,72.21 0,26.99 -9.16,48.05 -27.33,63.19 -18.24,15.15 -43.75,22.68 -76.5,22.68l-105.25 0 0 -301.79zm35.08 129.34l57.77 0c24.79,0 42.61,-3.87 53.47,-11.69 10.92,-7.75 16.34,-20.86 16.34,-39.31 0,-16.9 -6.06,-29.16 -18.17,-36.63 -12.12,-7.54 -31.35,-11.27 -57.77,-11.27l-51.64 0 0 98.91zm0 29.58l0 112.85 62.98 0c24.3,0 42.69,-4.71 54.94,-14.16 12.33,-9.37 18.53,-24.16 18.53,-44.24 0,-18.66 -6.34,-32.47 -18.88,-41.28 -12.61,-8.81 -31.77,-13.18 -57.48,-13.18l-60.1 0zm372.73 142.87l-6.83 -32.19 -1.7 0c-11.26,14.16 -22.47,23.8 -33.67,28.88 -11.27,5 -25.22,7.54 -41.98,7.54 -22.48,0 -40.02,-5.77 -52.77,-17.32 -12.68,-11.62 -19.09,-28.04 -19.09,-49.45 0,-45.72 36.56,-69.67 109.55,-71.86l38.39 -1.27 0 -14.02c0,-17.68 -3.8,-30.78 -11.41,-39.24 -7.68,-8.46 -19.87,-12.68 -36.63,-12.68 -18.88,0 -40.16,5.78 -63.96,17.33l-10.5 -26.21c11.13,-6.06 23.32,-10.84 36.56,-14.3 13.32,-3.45 26.63,-5.14 39.95,-5.14 26.98,0 46.92,5.99 59.95,17.96 13.03,11.97 19.51,31.14 19.51,57.55l0 154.42 -25.36 0zm-77.42 -24.09c21.35,0 38.11,-5.85 50.23,-17.54 12.18,-11.69 18.31,-28.04 18.31,-49.09l0 -20.44 -34.31 1.49c-27.19,0.91 -46.85,5.14 -58.89,12.68 -12.05,7.46 -18.03,19.16 -18.03,34.94 0,12.4 3.73,21.84 11.26,28.25 7.47,6.48 17.97,9.72 31.42,9.72zm319.33 -37.55c0,21.07 -7.9,37.34 -23.53,48.75 -15.71,11.41 -37.69,17.11 -66.08,17.11 -29.94,0 -53.33,-4.71 -70.16,-14.23l0 -31.84c10.91,5.49 22.53,9.86 35.01,13.03 12.47,3.18 24.45,4.72 36,4.72 17.89,0 31.63,-2.89 41.28,-8.6 9.65,-5.7 14.45,-14.37 14.45,-26.06 0,-8.81 -3.8,-16.34 -11.48,-22.61 -7.61,-6.27 -22.48,-13.67 -44.67,-22.2 -21.06,-7.89 -35.99,-14.72 -44.87,-20.57 -8.88,-5.84 -15.5,-12.47 -19.8,-19.93 -4.36,-7.4 -6.48,-16.27 -6.48,-26.63 0,-18.46 7.47,-32.97 22.48,-43.68 15.01,-10.63 35.57,-15.99 61.71,-15.99 24.3,0 48.11,4.92 71.36,14.86l-12.19 27.9c-22.68,-9.37 -43.25,-14.02 -61.63,-14.02 -16.27,0 -28.54,2.54 -36.77,7.61 -8.25,5.14 -12.4,12.12 -12.4,21.07 0,6.06 1.55,11.2 4.65,15.5 3.1,4.22 8.1,8.32 15,12.19 6.84,3.8 20.08,9.44 39.6,16.69 26.84,9.78 44.94,19.65 54.38,29.51 9.45,9.93 14.17,22.41 14.17,37.4zm89.96 61.64l-34.24 0 0 -226.13 34.24 0 0 226.13zm-37.13 -287.56c0,-7.82 1.91,-13.52 5.78,-17.18 3.87,-3.66 8.67,-5.49 14.44,-5.49 5.5,0 10.28,1.83 14.24,5.56 4.01,3.73 5.98,9.44 5.98,17.11 0,7.76 -1.97,13.53 -5.98,17.26 -3.95,3.8 -8.74,5.71 -14.24,5.71 -5.77,0 -10.56,-1.91 -14.44,-5.71 -3.87,-3.73 -5.78,-9.51 -5.78,-17.26zm200.21 291.79c-32.76,0 -58.12,-10.07 -76.08,-30.21 -17.96,-20.22 -26.91,-48.75 -26.91,-85.6 0,-37.9 9.09,-67.14 27.33,-87.77 18.25,-20.64 44.17,-30.99 77.92,-30.99 10.84,0 21.7,1.19 32.61,3.51 10.85,2.33 19.38,5.07 25.57,8.32l-10.56 29.09c-7.54,-3.04 -15.78,-5.5 -24.72,-7.54 -8.95,-1.98 -16.84,-2.97 -23.74,-2.97 -45.93,0 -68.89,29.31 -68.89,87.92 0,27.76 5.56,49.09 16.76,63.96 11.27,14.87 27.83,22.27 49.87,22.27 18.81,0 38.18,-4.09 57.98,-12.19l0 30.43c-15.15,7.82 -34.17,11.76 -57.13,11.76zm403.38 -4.22l-198.45 0 0 -29.51 79.54 -79.89c24.16,-24.52 40.16,-41.98 47.91,-52.49 7.68,-10.42 13.45,-20.64 17.32,-30.5 3.8,-9.92 5.78,-20.57 5.78,-32.05 0,-16.06 -4.93,-28.82 -14.66,-38.25 -9.78,-9.44 -23.38,-14.16 -40.72,-14.16 -12.54,0 -24.37,2.04 -35.57,6.2 -11.27,4.08 -23.73,11.62 -37.47,22.47l-18.18 -23.31c27.76,-23.03 58.05,-34.52 90.81,-34.52 28.39,0 50.58,7.26 66.71,21.77 16.13,14.51 24.17,34.03 24.17,58.54 0,19.09 -5.36,38.04 -16.13,56.78 -10.71,18.67 -30.78,42.33 -60.31,70.94l-66.08 64.67 0 1.62 155.34 0 0 31.7zm243.31 -151.24c0,52.2 -8.25,91.16 -24.66,116.87 -16.48,25.71 -41.63,38.6 -75.44,38.6 -32.55,0 -57.2,-13.17 -74.17,-39.52 -16.91,-26.35 -25.36,-65.02 -25.36,-115.95 0,-52.56 8.17,-91.51 24.58,-117.01 16.34,-25.43 41.36,-38.18 74.95,-38.18 32.76,0 57.62,13.31 74.6,39.87 16.97,26.56 25.5,65.02 25.5,115.32zm-164.98 -0.07c0,43.88 5.14,75.87 15.5,95.94 10.35,20.01 26.77,30.01 49.38,30.01 22.82,0 39.38,-10.14 49.66,-30.43 10.21,-20.36 15.36,-52.13 15.36,-95.52 0,-43.32 -5.14,-75.09 -15.36,-95.31 -10.28,-20.15 -26.84,-30.22 -49.66,-30.22 -22.61,0 -39.03,9.93 -49.38,29.86 -10.35,19.87 -15.5,51.78 -15.5,95.67zm510.52 151.31l0 -147.16c0,-17.96 -3.8,-31.49 -11.55,-40.51 -7.68,-9.02 -19.66,-13.53 -35.86,-13.53 -21.34,0 -37.05,6.13 -47.27,18.39 -10.14,12.26 -15.29,31.06 -15.29,56.49l0 126.31 -34.24 0 0 -147.16c0,-17.96 -3.87,-31.49 -11.55,-40.51 -7.68,-9.02 -19.73,-13.53 -36.13,-13.53 -21.42,0 -37.13,6.42 -47.14,19.31 -9.92,12.82 -14.93,33.95 -14.93,63.26l0 118.63 -34.24 0 0 -226.13 27.83 0 5.56 30.85 1.69 0c6.41,-10.99 15.58,-19.58 27.34,-25.78 11.76,-6.2 24.93,-9.3 39.52,-9.3 35.3,0 58.47,12.82 69.32,38.39l1.62 0c6.76,-11.84 16.55,-21.21 29.3,-28.11 12.82,-6.84 27.41,-10.28 43.74,-10.28 25.58,0 44.74,6.55 57.49,19.72 12.68,13.1 19.09,34.17 19.09,63.05l0 147.58 -34.31 0zm393.16 0l0 -147.16c0,-17.96 -3.8,-31.49 -11.55,-40.51 -7.68,-9.02 -19.66,-13.53 -35.86,-13.53 -21.34,0 -37.05,6.13 -47.27,18.39 -10.14,12.26 -15.29,31.06 -15.29,56.49l0 126.31 -34.24 0 0 -147.16c0,-17.96 -3.87,-31.49 -11.55,-40.51 -7.68,-9.02 -19.73,-13.53 -36.13,-13.53 -21.42,0 -37.13,6.42 -47.14,19.31 -9.92,12.82 -14.93,33.95 -14.93,63.26l0 118.63 -34.24 0 0 -226.13 27.83 0 5.56 30.85 1.69 0c6.41,-10.99 15.58,-19.58 27.34,-25.78 11.76,-6.2 24.93,-9.3 39.52,-9.3 35.3,0 58.47,12.82 69.32,38.39l1.62 0c6.76,-11.84 16.55,-21.21 29.3,-28.11 12.82,-6.84 27.41,-10.28 43.74,-10.28 25.58,0 44.74,6.55 57.49,19.72 12.68,13.1 19.09,34.17 19.09,63.05l0 147.58 -34.31 0zm399.5 0l-41.5 -132.65c-2.61,-8.1 -7.46,-26.55 -14.65,-55.29l-1.62 0c-5.5,24.09 -10.36,42.62 -14.45,55.72l-42.75 132.22 -39.6 0 -61.77 -226.13 35.92 0c14.59,56.78 25.71,100.1 33.39,129.76 7.61,29.72 11.98,49.73 13.11,60.09l1.62 0c1.55,-7.89 3.94,-18.03 7.33,-30.43 3.37,-12.46 6.27,-22.33 8.81,-29.65l41.49 -129.76 37.13 0 40.43 129.76c7.76,23.67 12.97,43.53 15.72,59.67l1.69 0c0.5,-5 1.98,-12.61 4.44,-22.89 2.4,-10.35 16.69,-65.87 43.04,-166.53l35.5 0 -62.56 226.13 -40.72 0zm178.3 0l-34.24 0 0 -226.13 34.24 0 0 226.13zm-37.13 -287.56c0,-7.82 1.91,-13.52 5.78,-17.18 3.87,-3.66 8.67,-5.49 14.44,-5.49 5.5,0 10.28,1.83 14.24,5.56 4.01,3.73 5.98,9.44 5.98,17.11 0,7.76 -1.97,13.53 -5.98,17.26 -3.95,3.8 -8.74,5.71 -14.24,5.71 -5.77,0 -10.56,-1.91 -14.44,-5.71 -3.87,-3.73 -5.78,-9.51 -5.78,-17.26zm182.88 263.47c6.06,0 11.91,-0.42 17.54,-1.34 5.63,-0.92 10.07,-1.83 13.39,-2.82l0 26.27c-3.73,1.77 -9.17,3.24 -16.41,4.44 -7.19,1.2 -13.74,1.76 -19.52,1.76 -43.74,0 -65.58,-23.03 -65.58,-69.17l0 -134.55 -32.41 0 0 -16.48 32.41 -14.3 14.44 -48.25 19.8 0 0 52.41 65.65 0 0 26.63 -65.65 0 0 133.07c0,13.66 3.23,24.09 9.71,31.41 6.48,7.26 15.36,10.92 26.63,10.92zm231 24.09l0 -146.31c0,-18.46 -4.16,-32.2 -12.61,-41.29 -8.39,-9.09 -21.56,-13.6 -39.45,-13.6 -23.81,0 -41.15,6.49 -52.13,19.38 -10.92,12.96 -16.41,34.17 -16.41,63.61l0 118.21 -34.24 0 0 -321.23 34.24 0 0 97.29c0,11.69 -0.57,21.41 -1.63,29.08l2.05 0c6.76,-10.84 16.34,-19.44 28.82,-25.71 12.46,-6.27 26.7,-9.37 42.61,-9.37 27.69,0 48.46,6.55 62.27,19.72 13.81,13.11 20.72,34.03 20.72,62.63l0 147.58 -34.24 0zm299.8 -113.27c0,36.91 -9.3,65.73 -27.82,86.44 -18.6,20.71 -44.24,31.06 -77,31.06 -20.22,0 -38.18,-4.71 -53.9,-14.23 -15.64,-9.51 -27.75,-23.17 -36.27,-40.93 -8.6,-17.75 -12.82,-38.53 -12.82,-62.34 0,-36.91 9.23,-65.66 27.69,-86.23 18.38,-20.57 44.02,-30.85 76.71,-30.85 31.7,0 56.78,10.49 75.44,31.55 18.67,21.07 27.97,49.59 27.97,85.53zm-172.3 0c0,28.89 5.77,50.93 17.32,66.08 11.55,15.15 28.54,22.68 51.01,22.68 22.4,0 39.45,-7.54 51.07,-22.61 11.62,-15.08 17.39,-37.12 17.39,-66.15 0,-28.75 -5.77,-50.58 -17.39,-65.52 -11.62,-14.94 -28.82,-22.41 -51.5,-22.41 -22.48,0 -39.38,7.33 -50.79,22.06 -11.41,14.72 -17.11,36.7 -17.11,65.87zm264.59 -112.85l0 146.73c0,18.39 4.15,32.2 12.61,41.29 8.39,9.09 21.56,13.6 39.45,13.6 23.67,0 40.93,-6.48 51.92,-19.38 10.92,-12.96 16.41,-34.09 16.41,-63.4l0 -118.84 34.24 0 0 226.13 -28.25 0 -4.93 -30.22 -1.91 0c-6.97,11.13 -16.76,19.66 -29.23,25.57 -12.4,5.92 -26.63,8.88 -42.61,8.88 -27.55,0 -48.12,-6.55 -61.85,-19.58 -13.67,-13.1 -20.5,-34.03 -20.5,-62.77l0 -148 34.66 0zm300.3 202.04c6.06,0 11.91,-0.42 17.54,-1.34 5.63,-0.92 10.07,-1.83 13.39,-2.82l0 26.27c-3.73,1.77 -9.17,3.24 -16.41,4.44 -7.19,1.2 -13.74,1.76 -19.52,1.76 -43.74,0 -65.58,-23.03 -65.58,-69.17l0 -134.55 -32.41 0 0 -16.48 32.41 -14.3 14.44 -48.25 19.8 0 0 52.41 65.65 0 0 26.63 -65.65 0 0 133.07c0,13.66 3.23,24.09 9.71,31.41 6.48,7.26 15.36,10.92 26.63,10.92zm191.13 24.09l0 -301.79 35.08 0 0 301.79 -35.08 0zm267.55 0l0 -146.31c0,-18.46 -4.16,-32.2 -12.61,-41.29 -8.39,-9.09 -21.56,-13.6 -39.45,-13.6 -23.67,0 -41.01,6.42 -51.99,19.17 -11.06,12.82 -16.55,33.95 -16.55,63.4l0 118.63 -34.24 0 0 -226.13 27.83 0 5.56 30.85 1.69 0c7.05,-11.13 16.84,-19.79 29.52,-25.92 12.68,-6.13 26.77,-9.16 42.33,-9.16 27.26,0 47.77,6.55 61.49,19.72 13.81,13.1 20.65,34.17 20.65,63.05l0 147.58 -34.24 0zm177.65 -24.09c6.06,0 11.91,-0.42 17.54,-1.34 5.63,-0.92 10.07,-1.83 13.39,-2.82l0 26.27c-3.73,1.77 -9.17,3.24 -16.41,4.44 -7.19,1.2 -13.74,1.76 -19.52,1.76 -43.74,0 -65.58,-23.03 -65.58,-69.17l0 -134.55 -32.41 0 0 -16.48 32.41 -14.3 14.44 -48.25 19.8 0 0 52.41 65.65 0 0 26.63 -65.65 0 0 133.07c0,13.66 3.23,24.09 9.71,31.41 6.48,7.26 15.36,10.92 26.63,10.92zm171.68 28.32c-33.46,0 -59.81,-10.21 -79.11,-30.57 -19.38,-20.36 -29.02,-48.67 -29.02,-84.89 0,-36.48 8.95,-65.44 26.91,-86.92 17.96,-21.49 42.05,-32.19 72.35,-32.19 28.32,0 50.79,9.3 67.28,27.97 16.48,18.66 24.79,43.25 24.79,73.76l0 21.7 -155.82 0c0.7,26.56 7.4,46.71 20.07,60.51 12.76,13.74 30.65,20.65 53.83,20.65 24.3,0 48.39,-5.07 72.21,-15.29l0 30.57c-12.12,5.28 -23.6,9.02 -34.38,11.34 -10.78,2.25 -23.81,3.37 -39.1,3.37zm-9.3 -205.84c-18.18,0 -32.62,5.92 -43.4,17.75 -10.84,11.76 -17.18,28.11 -19.09,49.03l118.21 0c0,-21.56 -4.78,-38.11 -14.44,-49.59 -9.65,-11.48 -23.38,-17.19 -41.28,-17.19zm254.02 -28.74c10,0 19.02,0.84 26.98,2.46l-4.72 31.92c-9.37,-2.05 -17.6,-3.11 -24.79,-3.11 -18.24,0 -33.89,7.4 -46.92,22.27 -12.96,14.86 -19.44,33.39 -19.44,55.5l0 121.31 -34.31 0 0 -226.13 28.32 0 3.87 41.77 1.69 0c8.39,-14.73 18.46,-26.07 30.29,-34.03 11.83,-7.96 24.8,-11.97 39.03,-11.97zm171.32 30.85l-57.55 0 0 199.5 -34.31 0 0 -199.5 -40.44 0 0 -15.5 40.44 -12.4 0 -12.61c0,-55.58 24.3,-83.34 72.91,-83.34 11.97,0 25.99,2.4 42.05,7.26l-8.88 27.48c-13.17,-4.3 -24.44,-6.41 -33.81,-6.41 -12.97,0 -22.48,4.29 -28.68,12.89 -6.2,8.59 -9.3,22.4 -9.3,41.35l0 14.66 57.55 0 0 26.63zm180.34 199.5l-6.83 -32.19 -1.7 0c-11.26,14.16 -22.47,23.8 -33.67,28.88 -11.27,5 -25.22,7.54 -41.98,7.54 -22.48,0 -40.02,-5.77 -52.77,-17.32 -12.68,-11.62 -19.09,-28.04 -19.09,-49.45 0,-45.72 36.56,-69.67 109.55,-71.86l38.39 -1.27 0 -14.02c0,-17.68 -3.8,-30.78 -11.41,-39.24 -7.68,-8.46 -19.87,-12.68 -36.63,-12.68 -18.88,0 -40.16,5.78 -63.96,17.33l-10.5 -26.21c11.13,-6.06 23.32,-10.84 36.56,-14.3 13.32,-3.45 26.63,-5.14 39.95,-5.14 26.98,0 46.92,5.99 59.95,17.96 13.03,11.97 19.51,31.14 19.51,57.55l0 154.42 -25.36 0zm-77.42 -24.09c21.35,0 38.11,-5.85 50.23,-17.54 12.18,-11.69 18.31,-28.04 18.31,-49.09l0 -20.44 -34.31 1.49c-27.19,0.91 -46.85,5.14 -58.89,12.68 -12.05,7.46 -18.03,19.16 -18.03,34.94 0,12.4 3.73,21.84 11.26,28.25 7.47,6.48 17.97,9.72 31.42,9.72zm263.82 28.32c-32.76,0 -58.12,-10.07 -76.08,-30.21 -17.96,-20.22 -26.91,-48.75 -26.91,-85.6 0,-37.9 9.09,-67.14 27.33,-87.77 18.25,-20.64 44.17,-30.99 77.92,-30.99 10.84,0 21.7,1.19 32.61,3.51 10.85,2.33 19.38,5.07 25.57,8.32l-10.56 29.09c-7.54,-3.04 -15.78,-5.5 -24.72,-7.54 -8.95,-1.98 -16.84,-2.97 -23.74,-2.97 -45.93,0 -68.89,29.31 -68.89,87.92 0,27.76 5.56,49.09 16.76,63.96 11.27,14.87 27.83,22.27 49.87,22.27 18.81,0 38.18,-4.09 57.98,-12.19l0 30.43c-15.15,7.82 -34.17,11.76 -57.13,11.76zm206.34 0c-33.46,0 -59.81,-10.21 -79.11,-30.57 -19.38,-20.36 -29.02,-48.67 -29.02,-84.89 0,-36.48 8.95,-65.44 26.91,-86.92 17.96,-21.49 42.05,-32.19 72.35,-32.19 28.32,0 50.79,9.3 67.28,27.97 16.48,18.66 24.79,43.25 24.79,73.76l0 21.7 -155.82 0c0.7,26.56 7.4,46.71 20.07,60.51 12.76,13.74 30.65,20.65 53.83,20.65 24.3,0 48.39,-5.07 72.21,-15.29l0 30.57c-12.12,5.28 -23.6,9.02 -34.38,11.34 -10.78,2.25 -23.81,3.37 -39.1,3.37zm-9.3 -205.84c-18.18,0 -32.62,5.92 -43.4,17.75 -10.84,11.76 -17.18,28.11 -19.09,49.03l118.21 0c0,-21.56 -4.78,-38.11 -14.44,-49.59 -9.65,-11.48 -23.38,-17.19 -41.28,-17.19z"/>
 </g>
</svg>
